<?xml version="1.0" encoding="utf-8"?>
<!-- Generator: Adobe Illustrator 22.1.0, SVG Export Plug-In . SVG Version: 6.00 Build 0)  -->
<svg version="1.1"
	 id="svg2" inkscape:version="0.92.2 5c3e80d, 2017-08-06" sodipodi:docname="404.svg" xmlns:cc="http://creativecommons.org/ns#" xmlns:dc="http://purl.org/dc/elements/1.1/" xmlns:inkscape="http://www.inkscape.org/namespaces/inkscape" xmlns:rdf="http://www.w3.org/1999/02/22-rdf-syntax-ns#" xmlns:sodipodi="http://sodipodi.sourceforge.net/DTD/sodipodi-0.dtd" xmlns:svg="http://www.w3.org/2000/svg"
	 xmlns="http://www.w3.org/2000/svg" xmlns:xlink="http://www.w3.org/1999/xlink" x="0px" y="0px" viewBox="0 0 297.6 163.2"
	 style="enable-background:new 0 0 297.6 163.2;" xml:space="preserve">
<style type="text/css">
	.st0{fill:#FFFFFF;stroke:#BFBFBF;stroke-width:0.5;stroke-linecap:round;stroke-linejoin:round;stroke-miterlimit:10;}
	.st1{fill:#C7C4C3;}
	.st2{fill:#BFBFBF;}
	.st3{fill:#EEA886;}
	.st4{fill:#FFBF55;}
	.st5{fill:#424242;}
	.st6{fill:#244057;}
	.st7{fill:#C79079;}
	.st8{fill:#AB7B68;}
	.st9{fill:#FCCCA2;}
	.st10{fill:#E54242;}
	.st11{fill:#C29141;}
</style>
<sodipodi:namedview  bordercolor="#666666" borderlayer="true" borderopacity="1" fit-margin-bottom="0" fit-margin-left="0" fit-margin-right="14.41" fit-margin-top="0" gridtolerance="10" guidetolerance="10" id="namedview39" inkscape:current-layer="text4184" inkscape:cx="203.87545" inkscape:cy="100.93138" inkscape:pageopacity="0" inkscape:pageshadow="2" inkscape:window-height="732" inkscape:window-maximized="1" inkscape:window-width="1366" inkscape:window-x="0" inkscape:window-y="0" inkscape:zoom="1.4142136" objecttolerance="10" pagecolor="#ffffff" showgrid="false">
	</sodipodi:namedview>
<g id="Multicolor" transform="matrix(2.6985062,0,0,2.6985062,-79.546188,-65.189707)">
	<g id="g5476" transform="translate(5.5620169e-7,11.0511)">
		<g>
			<path class="st0" d="M60.5,66.5c-2.3-0.2-2.3-0.5-3.3-3.1C57.1,63.2,57,63,57,62.8c-1-2.6-2-6.2-2.6-7.2c-0.4-0.8-0.8-2.1-1-2.7
				c-0.1-0.2-0.1-0.4-0.1-0.4s2.8-1.8,5.8,1.5c0,0-0.5,0.5-0.4,1.7c0.1,1.1,1.6,4.4,2,5.5c0.3,1.1,2.1,4.3,2.5,4.3
				C63.4,65.4,62.8,66.7,60.5,66.5z"/>
			<path class="st0" d="M91.8,48.5c0,0,1.7,2.2,2,3.1c0.3,0.9,1,4.2,0.2,6.4s-2.6,8.1-2.4,8.8c0.2,0.7,4.6,1,5.1,0.4
				c0.6-0.6-0.1-3.5,0.4-5.3c0.5-1.7,1.5-5.5,1.5-6.3C98.6,54.8,98.4,46.2,91.8,48.5z"/>
			<path class="st0" d="M133.5,61.4c-3.3,1.9-4.6,0.9-5.1,0c-0.2-0.4-0.8-0.9-1.5-1.4l0,0c-1.1-0.8-2.4-1.6-3.1-2.3l0,0l0,0
				c-0.1-0.1-0.2-0.2-0.2-0.3c-0.9-1.2-4.3-3.2-4.8-4.3c-0.5-1.1-2.5-2.4-3.2-3.5c-0.3-0.4-0.9-0.7-1.7-0.9
				c-1.4-0.3-3.2-0.3-3.7,0.4c-0.8,1-8.8,4-8.8,4.5c0,0.5,0.3,6.8,0.3,7.8c0,0.2,0.1,0.6,0.2,1c0.5,2,1.8,4.8,1.6,5.4
				c-0.2,0.7-4.3,0.7-5.1,0.1l-0.1-0.1c-0.1-0.1-0.2-0.3-0.2-0.6c-0.2-1.2,0.3-3.3,0.2-4.2c0-0.7-0.2-2.4-0.3-3.9c0-1,0-2,0.1-2.7
				c0.3-1.7-1.2-5-2-6.2c-0.1-0.2-0.3-0.4-0.6-0.5l0,0c-1.7-0.9-5.7-1.6-8.1-0.8c-1.6,0.5-6.9,1.2-11.6,1.7
				c-3.8,0.4-7.2,0.7-7.9,0.7c-1.6,0-2.9,1.5-6.4,2.6c-3.5,1.1-6.4-1.5-6.7-1.5c-0.4,0-1.9,3.2-2.2,5.6c-0.1,1.1,0.5,2.8,1.1,4.4
				c0.8,1.9,1.8,3.7,1.7,4.1c-0.2,0.6-3.5,0.6-4.8,0c-1.3-0.6-1.9-4.8-2.5-7.3s0.1-3,1.2-7.1c1-4.1-0.7-11.8-1.7-18.6
				c-0.1-0.9-0.2-1.7-0.3-2.5l0,0c-0.3-5.2,1.1-8,3.3-10.5c0.8-0.9,2.1-1.3,3.6-1.3c0.9,0,1.9,0.1,3,0.2c2.9,0.4,6,1.4,8.3,1.8
				c4.5,0.9,20.6-2.5,22.7-3.3c0.6-0.2,2-0.2,3.8-0.1c2,0.2,4.5,0.6,7,1.1c2.6,0.5,5.1,1.1,7.1,1.7c5.7,1.6,8.9,7,10.6,9.5
				c1.2,1.8,4.3,5.4,6,7.4l0,0c0.4,0.4,0.7,0.8,0.9,1c0.2,0.2,0.3,0.4,0.4,0.4c0,0-0.1-1,1.8-2.8c2-1.8,3,3.5,3.1,5.2
				c0,1.6,0.3,2,1.7,3.6s0.7,4.4,0.9,5.8C131.7,52,136.8,59.5,133.5,61.4z"/>
			<path class="st0" d="M47.5,32.3c0,0,0.3,7.6-0.6,10.3c-0.9,2.7-2.7,7.2-5.4,7.2c-1.9,0-2.8-2.1-3.2-3.3c3-7.1-2.4-6.3-3.3-5.4
				c-0.9,0.9,0,1.7,1,0.9c1-0.7,1.4,0.7,1.1,2.3c-0.3,1.6,0.2,2.3,0.8,2.5l0,0c0.3,1.1,1.4,3.5,3.8,3.5c2.7,0,5.1-4.3,5.8-7.7
				c0.8-3.4,0.8-4.7,0.8-4.7L47.5,32.3z"/>
			<polygon class="st1" points="62.4,57.2 57.4,57.2 59.1,67.4 62.4,67.4 65.7,67.4 67.4,57.2 			"/>
			<g>
				<path id="path866" class="st2" d="M90.5,38.7l-0.9,0l0,2.1l-1.6,0l0-2.1l-3.7,0l0-1l2.8-8.2l1.7,0l0,0.1l-2.6,7.7l1.8,0l0-3.4
					l1.6,0l0,3.4l0.9,0L90.5,38.7z"/>
				<path id="path868" class="st2" d="M97.1,39.8c0,0.7-0.3,1-1,1l-3.5,0c-0.7,0-1-0.3-1-1l0-9.3c0-0.7,0.3-1,1-1l3.4,0
					c0.7,0,1,0.3,1,1L97.1,39.8L97.1,39.8z M95.4,39.4l0-8.4l-2.2,0l0,8.4L95.4,39.4z"/>
				<path id="path870" class="st2" d="M104.2,38.7l-0.9,0l0,2.1l-1.6,0l0-2.1l-3.7,0l0-1l2.8-8.2l1.7,0l0,0.1l-2.6,7.7l1.8,0l0-3.4
					l1.6,0l0,3.4l0.9,0L104.2,38.7z"/>
			</g>
			<g>
				<path class="st3" d="M60.9,52.9c0,0-0.9,0.9-0.8,1.3c0.1,0.4,1.5-0.1,1.8-0.9C62.2,52.6,60.9,52.9,60.9,52.9z"/>
				<path class="st4" d="M67.2,37.4c0,0-1.9,0.7-2,3.3c-0.1,2.6-0.2,4-0.3,4.4c-0.1,0.4-0.3,2-0.8,3c-0.5,0.9-3.4,4.7-3.4,4.7
					l1.5,0.6c0,0,4.2-4.2,4.4-5c0.3-0.8,1.3-6.1,1.4-7C68,40.7,68.9,37.5,67.2,37.4z"/>
				<path class="st3" d="M68.8,66.8c0,0,0.1,1,0.2,1.1c0,0.1,1.5-0.1,1.5-0.1l0.1-1.2C70.5,66.6,68.9,66.6,68.8,66.8z"/>
				<path class="st5" d="M68.9,67.8c0,0-1.3,0.7-1.7,1c-0.5,0.3-1.9,0.4-1.8,0.7c0.1,0.3,0.5,0.9,2.4,0.9c1.9,0,2.8,0.1,3-0.2
					c0.2-0.3-0.3-2.4-0.3-2.4S70,68,68.9,67.8z"/>
				<path class="st3" d="M62.6,68l0.2,1.3c0,0,1.6-0.1,1.7-0.3c0.1-0.2-0.2-1.4-0.2-1.4L62.6,68z"/>
				<path class="st5" d="M64.5,68.6c0,0,0.5,1.9,0.1,2.5s-1.5,0.8-1.9,0.7c-0.4,0-1.6-0.4-2.6-0.4c-1.1,0.1-2.3-0.2-2-0.9
					c0.3-0.7,2.6-0.5,3.3-1.1c0.7-0.6,1.3-0.7,1.3-0.7S63.2,68.6,64.5,68.6z"/>
				<path class="st6" d="M74.6,52.3c0,0,0.2,3.2-1.2,3.8l-11,0c0,0,2.5,11.3,2.4,12.6L62.4,69c0,0-4.1-10.2-4.3-10.8
					c-0.3-0.8-0.3-2.9,0.6-3.7c0.9-0.8,6.4-3,7.5-3.1C67.2,51.4,74.6,52.3,74.6,52.3z"/>
				<path class="st6" d="M65.9,57.6c0,0,2,10.1,2.3,10.1c0.3,0.1,2.5,0.3,2.5,0.3s0.2-5.5,0.1-6.8c-0.1-1.4-0.2-4-0.2-4L65.9,57.6z"
					/>
				<path class="st7" d="M76,58.3l-20.2,0c-0.3,0-0.6-0.2-0.6-0.6l0-1.1c0-0.3,0.2-0.6,0.6-0.6L76,56c0.3,0,0.6,0.2,0.6,0.6l0,1.1
					C76.6,58,76.3,58.3,76,58.3z"/>
				
					<rect x="55.2" y="61.5" transform="matrix(1 -2.255398e-03 2.255398e-03 1 -0.1441 0.1488)" class="st8" width="21.4" height="5"/>
				
					<rect x="73.3" y="47.3" transform="matrix(1 -2.118816e-03 2.118816e-03 1 -0.137 0.1591)" class="st7" width="3.4" height="34.8"/>
				<g>
					
						<rect x="55.1" y="47.3" transform="matrix(1 -2.119679e-03 2.119679e-03 1 -0.1372 0.1206)" class="st7" width="3.4" height="34.9"/>
				</g>
				<path class="st4" d="M73.2,42.1c0,0-0.9-5.3,1.5-4.3c0,0,0.6,0.9,1.1,2.5c0.4,1.2,1,4.4,0.7,5.3c-0.3,0.9-1.1,1.5-2.3,2.8
					c0,0-2.2,2.4-2.4,2.7l-1.4-1.2c0,0,2-2.3,3.6-4.5L73.2,42.1z"/>
				<path class="st3" d="M69.7,34.3c0,0,0.6,1.6,0.1,2.9c0,0,2.3-0.2,2.3-0.4c0.1-0.3-0.1-2.7,0.2-3.4
					C72.7,32.7,69.7,34.3,69.7,34.3z"/>
				<path class="st4" d="M69.5,36.7c0,0-1.3,0.5-1.9,0.6c-0.6,0.1-1.9,0.7-1.8,3c0.1,2.2,0.5,4.2,0.6,5.2s0.1,3.4-0.2,4.6
					c0,0,3.2,0.8,7,0c0,0-0.7-2-0.7-2.6c0-0.5,2.2-4.9,2.3-5.6c0.1-0.7,0.5-3.7-0.5-4.4c-1-0.7-1.8-0.6-2.3-0.9
					C71.7,36.4,70.1,36.5,69.5,36.7z"/>
				<path class="st4" d="M74.6,53.6c-5.5,1.5-9.8,0-9.8,0c0.4-0.8,0.7-1.6,0.9-2.4l0,0c0.1-0.6,0.3-1.1,0.3-1.6l0,0
					c0.4-3-0.1-5.3-0.1-5.3c0.6-5.2,8.5-6.8,9.1-5.1c0.6,1.6-0.4,8.9-0.4,9.5C74.5,49.3,74.6,53.6,74.6,53.6z"/>
				<path class="st3" d="M70.3,28.7c-1,0-3.4,0.6-2.6,4.4c0.8,3.7,2.1,3.3,3.4,2.7s2.4-3.8,2.3-4.6C73.2,30.4,73,28.6,70.3,28.7z"/>
				<path class="st9" d="M67.6,31.3c0,0,1.3,1.2,2.4,1.4c0,0,1.2,1.4,2.7,1.5c0,0,2.4-3.5-0.5-5.3C69.3,27.1,67.4,30.2,67.6,31.3z"
					/>
				<path class="st9" d="M72.1,29.2c0.1-0.1,2.2-1.5,3,0.6C76,32,74,35,73.8,36.1c-0.3,1.2,0.7,3.7,0.7,3.7s-1.6-1.1-2.2-2.5
					C71.6,35.9,70.8,32.1,72.1,29.2z"/>
				<path class="st10" d="M72.2,29.1c0,0-0.6,0.7-0.6,1.6c0,0-0.2-0.7,0-1.1C71.9,29.1,72.2,29.1,72.2,29.1z"/>
				<path class="st11" d="M65.7,51.2c0.1-0.6,0.3-1.6,0.4-2.1l0,0c0,0,0.3-0.3,0.4-0.6c0.1-0.4,1-4.9,1-4.9S68.5,47.8,65.7,51.2z"/>
			</g>
		</g>
	</g>
</g>
</svg>
