<?xml version="1.0" encoding="utf-8"?>
<!-- Generator: Adobe Illustrator 22.1.0, SVG Export Plug-In . SVG Version: 6.00 Build 0)  -->
<svg version="1.1"
	 id="svg8" inkscape:version="0.92.1 r15371" sodipodi:docname="logo.svg" xmlns:cc="http://creativecommons.org/ns#" xmlns:dc="http://purl.org/dc/elements/1.1/" xmlns:inkscape="http://www.inkscape.org/namespaces/inkscape" xmlns:rdf="http://www.w3.org/1999/02/22-rdf-syntax-ns#" xmlns:sodipodi="http://sodipodi.sourceforge.net/DTD/sodipodi-0.dtd" xmlns:svg="http://www.w3.org/2000/svg"
	 xmlns="http://www.w3.org/2000/svg" xmlns:xlink="http://www.w3.org/1999/xlink" x="0px" y="0px" viewBox="0 0 417.7 101.6"
	 style="enable-background:new 0 0 417.7 101.6;" xml:space="preserve">
<style type="text/css">
	.st0{fill:#292B2C;}
</style>
<sodipodi:namedview  bordercolor="#666666" borderopacity="1.0" fit-margin-bottom="0" fit-margin-left="0" fit-margin-right="0" fit-margin-top="0" id="base" inkscape:current-layer="layer1" inkscape:cx="216.67109" inkscape:cy="186.17218" inkscape:document-units="mm" inkscape:pageopacity="0.0" inkscape:pageshadow="2" inkscape:window-height="715" inkscape:window-maximized="1" inkscape:window-width="1366" inkscape:window-x="-8" inkscape:window-y="-8" inkscape:zoom="0.7" pagecolor="#ffffff" showgrid="false">
	</sodipodi:namedview>
<g>
	<polygon id="polygon337_1_" class="st0" points="227.6,96.3 227.6,28.8 215,28.8 215,96.3 	"/>
	<polygon id="polygon337" class="st0" points="19.5,95.9 19.5,28.5 6.9,28.5 6.9,95.9 	"/>
	<path id="path341" inkscape:connector-curvature="0" class="st0" d="M192.7,44.7c-2.4-3.8-8.7-7.5-16.1-7.5c-9.4,0-14,4-14,9
		c0,5.9,6.9,7.5,15,8.5c14.1,1.7,27.2,5.4,27.2,21.4c0,15-13.3,21.5-28.3,21.5c-13.8,0-24.3-4.2-29.4-16.6l10.7-5.5
		c3,7.4,10.7,10.7,19,10.7c8,0,15.5-2.8,15.5-10.1c0-6.3-6.7-9-15.6-9.9c-13.8-1.6-26.4-5.3-26.4-20.4c0-13.8,13.7-19.6,26.1-19.6
		c10.5,0,21.4,3,26.5,13.4L192.7,44.7z"/>
	<path id="path345" inkscape:connector-curvature="0" class="st0" d="M275.4,43l-12.5,28.7H288L275.4,43z M293.1,83.5h-35.3
		L252,96.3h-13.8l30.2-67.4h13.9l30.2,67.4h-13.8L293.1,83.5z"/>
	<path class="st0" d="M117.5,50.2c-12.8,0-23.2,10.4-23.2,23.2s10.4,23.2,23.2,23.2s23.2-10.4,23.2-23.2S130.3,50.2,117.5,50.2z
		 M117.5,86.8c-7.4,0-13.5-6-13.5-13.5c0-7.4,6-13.5,13.5-13.5s13.5,6,13.5,13.5C131,80.8,125,86.8,117.5,86.8z"/>
	<path id="path339_1_" inkscape:connector-curvature="0" class="st0" d="M89.8,86.5c-6.9,6.9-15.8,10-25.6,10
		c-25,0-35.6-17.3-35.7-34.8c-0.1-17.6,11.4-35.5,35.7-35.5c9.2,0,17.9,3.4,24.8,10.3l-8.4,8.2c-4.5-4.3-10.5-6.3-16.3-6.3
		c-16.3,0-23.3,12.1-23.2,23.4c0.1,11.2,6.5,22.9,23.2,22.9c5.9,0,12.5-2.4,17-6.9L89.8,86.5z"/>
	<path id="path349" inkscape:connector-curvature="0" class="st0" d="M20,4.5v11.1c0,3.5-2.4,5.6-6.7,5.6s-6.6-2.1-6.6-5.6V4.5
		c0-0.3,0.3-0.5,0.9-0.5h0.2c0.7,0,0.9,0.2,0.9,0.5v11.2c0,2.2,2,3.6,4.5,3.6c2.6,0,4.5-1.5,4.5-3.6V4.5c0-0.3,0.3-0.5,0.9-0.5h0.2
		C19.6,3.9,20,4.1,20,4.5z"/>
	<path id="path351" inkscape:connector-curvature="0" class="st0" d="M52.5,5.4c0,0.4-0.5,1.4-0.8,1.4c-0.3,0-1.5-1.1-3.8-1.1
		c-4.3,0-5.7,2.5-5.7,6.7c0,3.7,1.1,6.9,5.5,6.9c1.2,0,2.5-0.1,3.1-0.3v-4.9h-2.8c-0.3,0-0.5-0.3-0.5-0.7V13c0-0.5,0.1-0.7,0.5-0.7
		h4.2c0.5,0,0.7,0.2,0.7,0.7v6.5c0,1.3-2.6,1.8-5.4,1.8c-4.9,0-7.6-2.8-7.6-8.6c0-6.1,2.8-8.8,7.9-8.8C50.2,3.9,52.5,4.7,52.5,5.4z"
		/>
	<path id="path353" inkscape:connector-curvature="0" class="st0" d="M89.8,4.5v16.1c0,0.3-0.3,0.5-1,0.5h-0.1c-0.7,0-1-0.2-1-0.5
		V7.5v0.1L82.8,16l-0.5,0.3h-1L80.7,16l-4.9-8.6V7.3v13.2c0,0.3-0.3,0.5-1,0.5h-0.1c-0.7,0-1-0.2-1-0.5V4.5c0-0.3,0.3-0.5,1-0.5h0.9
		c0.5,0,0.9,0.2,1,0.5l4.6,8l0.6,1.6l0.7-1.4L87,4.4c0.1-0.3,0.5-0.5,1-0.5h0.8C89.5,3.9,89.8,4.1,89.8,4.5z"/>
	<g id="g363">
		<path id="path355_1_" inkscape:connector-curvature="0" class="st0" d="M373.5,77.7c0-5.3,5-6.9,9.5-6.9c4.6,0,9.6,1.9,9.6,7.3
			c0,5.1-5.1,7.1-9.5,7.1c-3.6,0.1-7.8,0.9-7.8,5.2v3.8h17.1v1.8h-19v-5.6c0-5.5,5.1-6.9,9.6-6.9c3.2,0,7.8-1.2,7.8-5.4
			c0-4.4-4.5-5.6-7.8-5.6c-3.3,0-7.6,1.1-7.6,5.3H373.5z"/>
		<path id="path357_1_" inkscape:connector-curvature="0" class="st0" d="M398.5,86.5c0,10.7,15.3,10.6,15.3,0v-5.9
			c0-10.6-15.3-10.7-15.3,0V86.5z M396.6,80.6c0-13,19.1-13,19.1,0v5.9c0,13-19.1,13-19.1,0V80.6z"/>
		<path id="path355" inkscape:connector-curvature="0" class="st0" d="M325.9,77.7c0-5.3,5-6.9,9.5-6.9c4.6,0,9.6,1.9,9.6,7.3
			c0,5.1-5.1,7.1-9.5,7.1c-3.6,0.1-7.8,0.9-7.8,5.2v3.8h17.1v1.8h-19v-5.6c0-5.5,5.1-6.9,9.6-6.9c3.2,0,7.8-1.2,7.8-5.4
			c0-4.4-4.5-5.6-7.8-5.6c-3.3,0-7.6,1.1-7.6,5.3H325.9z"/>
		<path id="path357" inkscape:connector-curvature="0" class="st0" d="M350.9,86.5c0,10.7,15.3,10.6,15.3,0v-5.9
			c0-10.6-15.3-10.7-15.3,0V86.5z M349,80.6c0-13,19.1-13,19.1,0v5.9c0,13-19.1,13-19.1,0V80.6z"/>
	</g>
</g>
</svg>
