<?xml version="1.0" encoding="utf-8"?>
<!-- Generator: Adobe Illustrator 22.1.0, SVG Export Plug-In . SVG Version: 6.00 Build 0)  -->
<svg version="1.1" id="Layer_1" xmlns="http://www.w3.org/2000/svg" xmlns:xlink="http://www.w3.org/1999/xlink" x="0px" y="0px"
	 viewBox="0 0 1875 822.1" style="enable-background:new 0 0 1875 822.1;" xml:space="preserve">
<style type="text/css">
	.st0{clip-path:url(#SVGID_2_);}
	.st1{fill:#DBF0F2;}
	.st2{opacity:0.8;fill:url(#SVGID_3_);}
	.st3{fill:#FFFFFF;}
	.st4{opacity:0.4;fill:url(#SVGID_4_);}
	.st5{opacity:0.4;fill:url(#SVGID_5_);}
	.st6{opacity:0.3;fill:#FFFFFF;}
	.st7{opacity:0.7;fill:#FFFFFF;}
	.st8{fill:#91CEAF;}
	.st9{fill:#75C69F;}
	.st10{fill:#C3D800;}
	.st11{fill:#83B730;}
	.st12{fill:#A2C900;}
	.st13{fill:#D8CD00;}
	.st14{opacity:0.4;fill:#83B730;}
	.st15{fill:#C1D6D3;}
	.st16{fill:#669B00;}
	.st17{fill:#F4E200;}
	.st18{fill:#E8D100;}
	.st19{fill:#EDC10A;}
	.st20{fill:#DBB026;}
	.st21{fill:#F2AE25;}
	.st22{opacity:0.2;}
	.st23{fill:#895606;}
	.st24{fill:#1A1414;}
	.st25{fill:#D4A772;}
	.st26{fill:#643B0D;}
	.st27{fill:#E4B881;}
	.st28{fill:#BE8A21;}
	.st29{fill:#AF2A0B;}
	.st30{fill:#26435D;}
	.st31{fill:#A5805B;}
	.st32{opacity:0.4;fill:#26435D;}
	.st33{fill:#8C1D07;}
	.st34{fill:#8E1C06;}
	.st35{opacity:0.5;fill:#6D1305;}
	.st36{fill:#6D1305;}
	.st37{fill:#C1913A;}
	.st38{fill:#CEB500;}
</style>
<g>
	<defs>
		<rect id="SVGID_1_" x="3" y="2" width="1875" height="822.1"/>
	</defs>
	<clipPath id="SVGID_2_">
		<use xlink:href="#SVGID_1_"  style="overflow:visible;"/>
	</clipPath>
	<g class="st0">
		<g>
			<g>
				<g>
					<rect x="-536.3" class="st1" width="2474.2" height="574"/>
					<linearGradient id="SVGID_3_" gradientUnits="userSpaceOnUse" x1="700.8202" y1="370.4858" x2="700.8202" y2="0">
						<stop  offset="0" style="stop-color:#FFFFFF"/>
						<stop  offset="7.272713e-02" style="stop-color:#F8FDFD"/>
						<stop  offset="0.1791" style="stop-color:#E4F8F8"/>
						<stop  offset="0.3062" style="stop-color:#C4F0F0"/>
						<stop  offset="0.4492" style="stop-color:#97E4E5"/>
						<stop  offset="0.6055" style="stop-color:#5ED5D7"/>
						<stop  offset="0.7707" style="stop-color:#19C3C5"/>
						<stop  offset="0.8274" style="stop-color:#00BCBF"/>
					</linearGradient>
					<rect x="-536.3" class="st2" width="2474.2" height="370.5"/>
				</g>
				<path class="st3" d="M1872,200.6c3.4-3,5.9-5.9,7.7-8.8C1876.3,194.1,1873.7,197,1872,200.6z"/>
				<path class="st3" d="M1879.7,191.8c-1.8,2.9-4.3,5.9-7.7,8.8C1873.7,197,1876.3,194.1,1879.7,191.8
					c23.4-37.5-73.8-68.3-107.3-40.8c40.7-31-9.5-61.8-43.9-60.7c-36.3,1.2-76.4,18.6-99.2,45.5c1.7-43.2-36-83.7-78.6-48.7
					c-7.8-7.9-13.4-9.9-25.2-8.4c31.4-6.3,17.8-34.4,1.4-45.9c-11.3-7.9-60.2-17.4-48.8-6.5l-8.7,2.9c4.6-11.7,5.3-21.4,3.2-29.3
					h-271.3c-1.8,2.3-3.6,4.6-5.4,6.9c-6.9,8.9-11.9,12.1-20.9,20c-24.1,21.3-26.9,30.7-40.3,57.5c-8.5,17,6,12.2-14.1,20.6
					c-17.2,7.1-52.1-0.1-70.9-0.1c-12.7,0-25.4,1.1-36.5-2.7c-13.4-4.6-9.8-18.3-35.4-17.9c-48.1,0.9-43.3,28-63.2,55.4
					c-23.2,31.9-93,11-94.5,65.9c-14.2-9.7-8-26.9-17.5-39.7c-11.8-15.9-43.6-26.3-62.8-23.3c-25.3,3.9-67.5,47.7-65.2,75.2
					c-16.1-3-27.9,6.6-29.2,23.3c-23.3,4.7-87.2-37.6-90.2,14.5c-10.4,5.7-17.5,12.6-25.7,17.3c-9.7,5.5-22.8-3.4-26.1,17.1
					c-28.6-29.6-50.5,18.2-73.5,26.5c-32.4,11.7-81.4,4.6-115.6,17.5c72.6,20,159.9,2.9,235,6.9c-2.3,46,78.5,19.2,99.5,16.9
					c31.2-3.4,85.1,2.4,112.6-19.8c18.2,28.6,66.4,34.4,94.6,20c18.6-9.5,22.6-21.3,42.9-26.2c16.1-3.9,30.5-0.5,46.1-8.4
					c-4.2,61.1,178.8,35,204.7,14.6c32.1,24,65.8,7.1,101.2,8.2c36.9,1.2,82,20.1,113.6-13.5c9.7,28.3,110.1,27.4,142.4,19.7
					c22.2-5.3,31.5-16.1,55.1-15.6c20.5,0.4,50.2,14,64.1-7c18.8,34.7,84.8,34,119.7,39c39.2,5.6,112.3,23.5,104.3-37.5
					c7.2,7.2,66.1,6.8,84.6,3.3c1-0.2,1.9-0.4,2.8-0.7V187.4C1914.5,183,1892,183.4,1879.7,191.8z"/>
				<linearGradient id="SVGID_4_" gradientUnits="userSpaceOnUse" x1="1872.0354" y1="196.194" x2="1879.7218" y2="196.194">
					<stop  offset="0" style="stop-color:#FFFFFF"/>
					<stop  offset="7.272713e-02" style="stop-color:#FFFEF8"/>
					<stop  offset="0.1791" style="stop-color:#FFFCE4"/>
					<stop  offset="0.3062" style="stop-color:#FFF7C4"/>
					<stop  offset="0.4492" style="stop-color:#FFF297"/>
					<stop  offset="0.6055" style="stop-color:#FEEA5E"/>
					<stop  offset="0.7707" style="stop-color:#FEE119"/>
					<stop  offset="0.8274" style="stop-color:#FEDE00"/>
				</linearGradient>
				<path class="st4" d="M1872,200.6c3.4-3,5.9-5.9,7.7-8.8C1876.3,194.1,1873.7,197,1872,200.6z"/>
				<linearGradient id="SVGID_5_" gradientUnits="userSpaceOnUse" x1="314.6202" y1="187.7941" x2="1937.9109" y2="187.7941">
					<stop  offset="0" style="stop-color:#FFFFFF"/>
					<stop  offset="7.272713e-02" style="stop-color:#FFFEF8"/>
					<stop  offset="0.1791" style="stop-color:#FFFCE4"/>
					<stop  offset="0.3062" style="stop-color:#FFF7C4"/>
					<stop  offset="0.4492" style="stop-color:#FFF297"/>
					<stop  offset="0.6055" style="stop-color:#FEEA5E"/>
					<stop  offset="0.7707" style="stop-color:#FEE119"/>
					<stop  offset="0.8274" style="stop-color:#FEDE00"/>
				</linearGradient>
				<path class="st5" d="M1879.7,191.8c-1.8,2.9-4.3,5.9-7.7,8.8C1873.7,197,1876.3,194.1,1879.7,191.8
					c23.4-37.5-73.8-68.3-107.3-40.8c40.7-31-9.5-61.8-43.9-60.7c-36.3,1.2-76.4,18.6-99.2,45.5c1.7-43.2-36-83.7-78.6-48.7
					c-7.8-7.9-13.4-9.9-25.2-8.4c31.4-6.3,17.8-34.4,1.4-45.9c-11.3-7.9-60.2-17.4-48.8-6.5l-8.7,2.9c4.6-11.7,5.3-21.4,3.2-29.3
					h-271.3c-1.8,2.3-3.6,4.6-5.4,6.9c-6.9,8.9-11.9,12.1-20.9,20c-24.1,21.3-26.9,30.7-40.3,57.5c-8.5,17,6,12.2-14.1,20.6
					c-17.2,7.1-52.1-0.1-70.9-0.1c-12.7,0-25.4,1.1-36.5-2.7c-13.4-4.6-9.8-18.3-35.4-17.9c-48.1,0.9-43.3,28-63.2,55.4
					c-23.2,31.9-93,11-94.5,65.9c-14.2-9.7-8-26.9-17.5-39.7c-11.8-15.9-43.6-26.3-62.8-23.3c-25.3,3.9-67.5,47.7-65.2,75.2
					c-16.1-3-27.9,6.6-29.2,23.3c-23.3,4.7-87.2-37.6-90.2,14.5c-10.4,5.7-17.5,12.6-25.7,17.3c-9.7,5.5-22.8-3.4-26.1,17.1
					c-28.6-29.6-50.5,18.2-73.5,26.5c-32.4,11.7-81.4,4.6-115.6,17.5c72.6,20,159.9,2.9,235,6.9c-2.3,46,78.5,19.2,99.5,16.9
					c31.2-3.4,85.1,2.4,112.6-19.8c18.2,28.6,66.4,34.4,94.6,20c18.6-9.5,22.6-21.3,42.9-26.2c16.1-3.9,30.5-0.5,46.1-8.4
					c-4.2,61.1,178.8,35,204.7,14.6c32.1,24,65.8,7.1,101.2,8.2c36.9,1.2,82,20.1,113.6-13.5c9.7,28.3,110.1,27.4,142.4,19.7
					c22.2-5.3,31.5-16.1,55.1-15.6c20.5,0.4,50.2,14,64.1-7c18.8,34.7,84.8,34,119.7,39c39.2,5.6,112.3,23.5,104.3-37.5
					c7.2,7.2,66.1,6.8,84.6,3.3c1-0.2,1.9-0.4,2.8-0.7V187.4C1914.5,183,1892,183.4,1879.7,191.8z"/>
				<path class="st6" d="M1663.3,172.2c-0.9,1.3-1.6,2.8-2.1,4.3C1662,175.1,1662.7,173.6,1663.3,172.2z"/>
				<path class="st6" d="M1607.8,185.7l10,38.4C1627.2,209.9,1628.1,186,1607.8,185.7z"/>
				<path class="st6" d="M1894.6,222.9c15.9-37.7-54.5-14.9-64-13.8c20.5-39.4-49.1-60.3-72.8-32.4c6.4-19.4-77.4-30.3-94.5-4.5
					c-0.6,1.4-1.3,2.8-2.1,4.3c0.5-1.5,1.2-3,2.1-4.3c12-29.3-33.1-42.4-54.9-25c8.6,7.7,5.2,22.7-1.6,34.5l1,3.9
					c20.3,0.3,19.4,24.2,10,38.4l-10-38.4c-1.1,0-2.3,0-3.6,0.2c0.9-1.3,1.7-2.7,2.6-4.1l-6.4-24.5c1.9-4.1,4.7-7.4,8-10
					c-3.4-3-8.7-4.9-16.3-5c10.6-19.5-14.9-84.6-43.7-61.7c36.1-35-68.9-77.4-67.1-8.8c-15-3.6-16.1,13.8-15.2,27
					c-9.6-3.1-12.6-3-22.4-3.8c-3-31.5-47.4-19.8-59,0.2c25-46-99-16.2-67.7,12.4c-15.8,7.2-16.1,33.7-27.9,38.1
					c-18.6,6.9-13.9-16.7-29.2-23.6c-42.7-19.3-42.9,48.3-72.3,46.2c-1.7-15.8,10-26.7-0.4-39.6c-14.8-18.4-42.3-7.6-55.5,5.2
					c-25.9,25.2-11.7,50.3-52.9,58.7c-14.1,2.9-29.7-0.9-43.6,2.3c-20.5,4.6-25.6,11.9-45.8,18.1c-35.1,10.8-76.8,13.2-113.1,19
					c-26.2,4.2-60.7-2.7-84,10.2c83.7,20.3,175.1-5.9,260.5-0.3c6.8,11.1,21.9,9.1,35,8.6c3.8,35,61-9.7,78.4-11.7
					c7.9,28.5,37.6,5.2,55.8,5.2c10.5,0,53.9,8.7,63.2,14.8c-23.8,9.2-90.3,16.7-39.5,38.6c63.7,27.5,130.9-22.5,194.2-14.9
					c-9.4,40.7,94,30.3,119.3,22.3c-1.4-7.7,2.3-17.6,0.8-25.2c21.8-1.2,44.5,6,63.6,5.4c23.6-0.8,41.3-19.4,64-20.5
					c12.1-0.6,18.2,8.3,29.7,9c20.9,1.2,34.7-12.8,54.1-17c28.5-6.1,61.5,0.7,90.4-1.1c-1.4-2.2-3-7.5-5.2-10.5
					c26.7-3.8,54.5,9.2,81.3,14.8v-36.9C1922.8,220.6,1907.5,220.6,1894.6,222.9z"/>
				<path class="st6" d="M1600.4,157.2l6.4,24.5c6.8-11.9,10.2-26.9,1.6-34.5C1605.1,149.8,1602.3,153.2,1600.4,157.2z"/>
				<path class="st7" d="M1903.4,74.9c4.9-59.7-77.3-62.9-99.4-14.8c-7,3.4-13.6,16.1-17.4,26.4c-3.6-14.3-27.2-36.3-41.3-42.2
					c-10.6-4.4-28.9-6-40.2-3c-21.5,5.5-27.4,29-41.4,36.8c-12.9,7.2-32.6-2-48.7,1c-10.8,2.1-25.4,7-34.5,13.5
					c-4.3,3.1-8.1,13.7-9.8,14.6c-31.9,18.4-70,1.9-104.2,12.8c-24.1,7.6-12.3,14.3-23.2,25.6c-11.3,11.6-14.8,15.4-38.4,17.5
					c-44.4,4-82.6-7-123.7,6.6c-88.9,29.2-178.5,20.8-268.4,37.6c39.8,22.4,128.4,5.1,174.5,5.2c49.5,0.1,100-2,149-9.4
					c43.3-6.5,82.1-4.6,121.3-2.2c23.3,1.4,114.6-37.7,105.4,8.3c17.7,1,36.8,1.8,54.6,0.6c26.7-1.8,73.1-18.9,98.7-8.9
					c10.4,4.1,4.9,13.6,12.6,16.9c18.5,7.9,41,2.3,60.6,3.6c34.7,2.3,47.4,26.9,84.2,32.9c23.3,3.8,43.1,1,64.1-3V44.5
					C1924.4,47.5,1911.2,64,1903.4,74.9z"/>
			</g>
			<path class="st8" d="M-10.1,413l7.2,12.3C-1.3,417.8-4.4,413.7-10.1,413z"/>
			<path class="st8" d="M280.1,431.2c15.5-15.6-13.1-22.7-24.6-17.6c1-14.2-15.7-18.7-27.3-17.5c2.7-12.6-10.4-18.9-21.6-14.8
				c-7.1,2.6-14.5,17.6-19.6,24.1c3.6-9.8-10.3-8-18.9-7.4c-2.7-15.9-27.5-6.7-36.8-2.4c-2.9-0.2-8.7-1.7-12.2-1.9
				c2.6-13.5-10-26.6-21.2-13.6c-4.2-19.3-28.1-15-33.4,2c-8.9-3.7-18.5-1.5-21.3,8.2c-7.1-3.5-15.4-3-19,5.4
				c-5.3-6.5-12-6.8-17.5-1c-8.4-8.2-19.4-3.1-23.3,7.5l6.4,10.9c5.7,0.7,8.8,4.8,7.2,12.3l-7.2-12.3c-1.8-0.2-3.8-0.1-6.1,0.4
				c2-10.6-4.6-18.4-15.5-17.4c-0.3-12.1,2.6-21-10-26.5c-11.4-4.9-25.1,2.7-25.5,14.8c-5.1,2.3-8.3,3.4-13,6
				c3.9-29.6-26.8-8.2-34.7-1.6c-5,4.1-34.9,35.4-33.8,11.8c-5.5,1.4-9.4-0.7-14.9,2.9c8-38.4-47.9-42.9-49.1-5.4
				c-8.9-1.8-16.3,2.1-17.5,11.6c-10.4-3.1-27.9-8.6-31,7.7c-10.6-0.9-14.5,8.1-24.6,7.8c3-14.2-18-19.2-27.5-17.9
				c-5.9-10.6-31.8-11.3-31.2,6.3c-8.7,0.1-11.6,7.3-11.6,15.5c-1.2,1-3.7,0.2-5.2,0.6c-1.7,1.3,0.3,2.6-2.3,3.8
				c-15.9-27.4-62.5,37-58.4,42.9c8,11.5,66.4-2.6,77.4-4.4c21.9-3.6,43.8-9.9,66.2-7.8c22.4,2.1,43.2,7.6,65.9,7.8
				c27.8,0.3,55.6-4.1,83.4-5.7c26-1.6,54.2-3.6,79.6-9.6c26.1-6.2,51.6-21.1,79.3-17.6c15.6,1.9,28.2,5.9,44.8,5.9
				c25.5,0,50.8-7.4,75.9-5.8c26.3,1.7,55,2,80.8,8.2c25.6,6.1,47.4,10.4,74,9C305.7,443.2,288,439.5,280.1,431.2z"/>
			<path class="st9" d="M-499.9,527.3c19.5-1.2,39-2.3,58.5-3.4c53.3-3,106-5.1,159.4-6.2c234.1-4.6,471.6-4.5,704.3-33
				c102.2-12.5,205.4-21,308.4-24.9c78.2-2.9,157.5,4.8,235.5-0.8c-50.2-26.3-121.8-27.9-177.8-30.6c-55.6-2.8-110-17.9-166.4-7.8
				c-23.2,4.2-44.6,5.5-68.3-0.4c-29.4-7.4-39.7-3.4-65.9,4.4c-54.8,16.2-119.6-41.1-168.5-4.6c-7.9-22.9-58.6-2.7-76.4-1.3
				c-18.3,1.5-37.5-0.1-55.5-0.3c1.5-13.4-6.6-8.7-13.4-13.7c-2.8-2.1-12.8-10.3-16-10.8c-20.7-3.5-19.5,16.3-34.6,19.3
				c-6.6,16.9-47.5,6.5-62.2,7.3c-18,1.1-32.8,12.7-51,11.8c-10.9-0.5-23.1-6-34.1-8.2c-17.9-3.6-37.9-1.7-54.8-7.2
				c-23.7-7.6-15.2-18.5-20.8-40.3c-5.4,15.2-2.8,33-8.6,47.5c-13.8-3.7-47.4,9.2-48.5-9.1c-5.6,1.5-11.1,3.1-15.2,7.7
				c-14.7-8.9,0.6-42.2-13.5-46.4c-13.4-3.9-14.5,42.3-23.3,50.2c-9.2-15-18.6-11.5-28.7-0.5c-8.8-9.1-25.8,4.7-35.2,6
				c-10.1,1.5-32.5,5.4-41.2,4c-16.6-2.6-14.4-21-28.7-19.6c-11.7,1.2-23.2,23-34.9,27.4c-8.6,3.2-32,5.4-40.7,3.4
				c-7.6-1.7-9.3-6.9-17.5-7.9c-5.8-0.7-12.9,3.2-19.5,2.5c-10.3-1.1-19.6-14.8-27-15.7c-10.8-1.4-43.3,20.1-44.7,23.4l-1.9-9.7
				c-1.4,4.5-4.5,12.8-7.8,22.6v66.7C-528.4,533.6-508.1,527.8-499.9,527.3z"/>
			<path class="st10" d="M-536.3,490.3v324.3h2474.2V578c-333.1-79.7-729-133.9-1101.2-133.9C359.4,444.1-160.5,449.4-536.3,490.3z"
				/>
			<path class="st11" d="M-536.3,500v324.3h2474.2V587.7c-333.1-79.7-729-133.9-1101.2-133.9C359.4,453.8-160.5,459.1-536.3,500z"/>
			<path class="st10" d="M-536.3,824.3h2474.2V506.1c-631.2,0-1841.1,30.1-2474.2,130.8V824.3z"/>
			<path class="st12" d="M-536.3,824.3h2474.2V520.7c-631.2,0-1841.1,30.1-2474.2,130.8V824.3z"/>
			<path class="st13" d="M774.3,697.4c0.8-11.1,1-22,0.6-31.9C774.4,675,774.1,685.9,774.3,697.4z"/>
			<path class="st13" d="M594.5,642.3c0,2.9,0,5.9,0,8.8C594.6,648.1,594.6,645.2,594.5,642.3z"/>
			<path class="st14" d="M543.5,463.1l-5.2-1.7C540,462,541.8,462.6,543.5,463.1z"/>
			<path class="st14" d="M543.5,463.1l0.6,0.2c-28.2,0-53.7-2.1-79.4,4.4c-18.4,4.7-35.7,3.1-54.7,1.4c-14.2-1.2-32.5-5.2-46.5-3.4
				c-7.8,1-11.4,4.1-15.7,5c-79.7,17.6-166,11.8-247.3,12c-90.4,0.2-181.1,2.9-270.6,3.9c-24.2,0.3-47.4,3.2-71.4,5.9
				c-22.4,2.5-66-0.6-83.6,13.5c9.7,13.1,41.6,9.8,56.5,9.7c34.4-0.1,68.1-1.3,102.4-3.9c55.8-4.2,113.1-3.3,169-3.8
				c89.5-0.9,179.4-3.4,268.3-11.6c67.4-6.3,133.4-11.6,201.7-11.6c36.3,0,72-2.4,108.1-3.8c29.3-1.1,73.4,4.5,100.9-5.9
				c3.4-1.3,5.9-2,9-3.9C646.1,458,588.5,476.8,543.5,463.1z"/>
			<g>
				<g>
					<g>
						<polygon class="st3" points="-85.4,298.5 -92.6,486.4 -68.1,486.4 -81.2,298.5 						"/>
						<path class="st3" d="M-66.1,486.4h-30.6c-1.1,0-2,0.9-2,2c0,1.1,0.9,2,2,2h30.6c1.1,0,2-0.9,2-2
							C-64.1,487.3-65,486.4-66.1,486.4z"/>
					</g>
					<polygon class="st15" points="-81.4,298.5 -81.4,486.4 -68.1,486.4 -81.2,298.5 					"/>
					<polygon class="st3" points="-86.1,208.4 -88.9,208.8 -89.6,305.1 -172.8,345 -171.9,347.7 -83.1,312.4 3.5,350 4.5,347.3 
						-80.1,303.3 					"/>
				</g>
				<g>
					<g>
						<polygon class="st3" points="-237.9,355.1 -243.9,493 -223.7,493 -234.5,355.1 						"/>
						<path class="st3" d="M-222,493h-25.2c-0.9,0-1.7,0.7-1.7,1.5s0.8,1.5,1.7,1.5h25.2c0.9,0,1.7-0.7,1.7-1.5S-221.1,493-222,493z
							"/>
					</g>
					<polygon class="st15" points="-234.7,355.1 -234.7,493 -223.7,493 -234.5,355.1 					"/>
					<polygon class="st3" points="-238.5,288.9 -240.8,289.2 -241.4,359.9 -310,389.2 -309.3,391.1 -236,365.2 -164.6,392.8 
						-163.8,390.9 -233.6,358.6 					"/>
				</g>
				<g>
					<g>
						<polygon class="st3" points="88.6,370.5 83.4,491.7 101.1,491.7 91.6,370.5 						"/>
						<path class="st3" d="M102.6,491.7H80.4c-0.8,0-1.5,0.6-1.5,1.3c0,0.7,0.7,1.3,1.5,1.3h22.1c0.8,0,1.5-0.6,1.5-1.3
							C104,492.3,103.4,491.7,102.6,491.7z"/>
					</g>
					<polygon class="st15" points="91.5,370.5 91.5,491.7 101.1,491.7 91.6,370.5 					"/>
					<polygon class="st3" points="88.1,312.4 86,312.6 85.6,374.7 25.3,400.4 26,402.2 90.3,379.4 153,403.7 153.7,401.9 
						92.4,373.6 					"/>
				</g>
			</g>
			<path class="st11" d="M1835.6,545.3c-42.6,12.7-94.9-1-135.8,8.7c-34.6,8.2-71.6,8-107.7,8.3c-66.3,0.5-132.4,2.4-198.5,3.8
				c-66.5,1.4-133.4,4.3-199.6,6.2c21.5,8.4,57,4.3,81,3.5c37.6-1.2,75.2-3.1,112.9-2c73.4,2.1,148.1,11.5,220.9,17.8
				c-9.4,13.2-37.5,9.3-50.7,18.9c11.4,12,33.7,11.4,48.8,18c-7.9,8.1-28.5,6.3-40.4,6.9c-31.9,1.7-63.8,1.2-95.7,2.8
				c-73.3,3.6-147.8-1.5-220.8,7.8c-56.2,7.2-109.6,21.9-166.6,24.3c-42.2,1.8-83.8-2.2-125.9-3.5c-13.6-0.4-41.4-3.6-46.8,11.3
				c32.3,12.8,79.2,6.3,113.2,6.2c72.2-0.1,144.5-1.1,216.7,1.5c84.1,3,166.5,3.4,246.5,29.1c30.5,9.8,63.5,8.5,95.2,10.1
				c45.4,2.4,90.6,3.1,135.9-0.5c69.1-5.5,137.6-9,206.9-9.2c4.1,0,8.4,0.1,12.9,0.4V528.1c-11.8,1.9-23.7,4.6-32.1,5.1
				C1879.3,534.7,1859.8,538.1,1835.6,545.3z"/>
			<path class="st16" d="M1793.2,653.3c-48.2,0.5-96.1,8.5-144,13.1c-21,2-99.3-3.6-110,15.6c10.5,5.2,22.9,8.7,32.2,14.5
				c-65,15.3-139.7,13.9-206.8,21.2c-50.8,5.5-100.6,13.7-150.7,23.3c-23.7,4.6-101.3,10-114.9,35.9
				c-12.2,23.3,46.1,38.2,109.4,47.4h726.8c0.9-0.1,1.9-0.2,2.8-0.3V657.5C1889.8,654.8,1841.6,652.9,1793.2,653.3z"/>
			<g>
				<path class="st17" d="M1559.1,727.5c-21.9,10.4-37.7-11.2-37.7-32c-18.7,3.5-42.2,23.7-63.6,13.5c-6.8-3.2-31.1-31.2-32.4-39.6
					c-15-0.7-30.7-0.1-45.7-0.9c-0.7-2.7-0.3-5.1-0.8-7.9c-11.4,1.8-24.8,4-37,2c1-5.7-2.2-14-0.9-19.5
					c-56.4,19.4-151.6,5.7-208.5-18.3c-0.5-20.6-77.3-44.7-93.7-29.6c-14.8-63.1-46.6-2-72.1,3.4c-10.9-18-75.1-7.4-96-8.6
					c0-3.4-0.9-7.3-0.8-10.8c-12.6-0.5-24.4,2.7-37.2,2c-0.6-2.7-0.2-5.1-0.7-7.9c-26.9-1.6-30.1,8.8-49-17.6
					c-35.3,30-36.2-7.6-29.7-37.7c-22.5,14.1-57.3,22.4-60.7,54.1c-0.4-1.9-0.4-5.5-0.3-7.5c-13.4,3.5-29.6,10.5-40.3-0.7
					c-3.2,4.5-11.5,7.8-14.5,12.3c-2.7-4-9-6.7-11.6-11.6c-13.1,13-42.9,24.9-41.3-5.9c-8.8,6.6-18.8,16.2-28,19.7
					c-0.5-11.8,3.9-22.7,4.9-34.2c-16.1,3.8-29.7,16.8-42.7,22.6c0.9-7.9-3.4-15.2-4-22c-25.2,32.1-32.5-12-38-29.6
					c-8.8,10.7-7.3,34.7-27.9,31.2c-2.9-11.2-5.3-22.5-6.8-34c-4.3-0.9-9.3-0.9-13.6,0c-3.6,10.1-5.8,20.6-6.8,31.1
					c-3.5,1.8-16.2,5.9-20.1,6.6c-6.6-6.6-11.8-17-15.1-26.1c-9.6,11.3-20.7,29.3-34.2,34.6c-7.7,3-14.1-4.5-20.4-3.1
					c-8.2,1.8-14.9,9.3-23.3,11.2c-7.5,1.7-11.4-4.2-21-2.5c-8,1.4-19.9,6.8-28.5,8.9c-13.9,3.4-28.7,12.4-35.5-5.6
					c-20.9,25.7-43.7,13.1-46.5-20.2c-12.1,4-20.9,19.6-30.9,28.6c-16.3,14.8-22.6,10.6-39.1,15.3c-16.7,4.7-62,15.6-66.9-14.8
					c-11.7,11.5-28.6,12.2-34.1-5.8c-5.8,2.8-19.8,17.9-26.4,17.3c-8.8-0.8-15.6-17.9-22.6-23.2c-12.7,53-58.9,42.5-103,40.5
					c-21.3-1-40.7,3.8-60.5,3c-11.4-0.5-14.8-9.6-26.2-8.8c-9.6,0.6-13.1,12.3-25.6,11.2c-1-6.4-7.7-12.6-9.1-17.4
					c-28,15.4-26.5,34.9-61.2,34.7c-23-0.1-46.9,0.2-67.7,1.4c-11.6,0.6-14.3-5.3-28.4-0.2c-10.9,3.9-9.2,16.3-22.5,16.2
					c-24.5-0.1-29-29.4-58.8-17.6c-16.5,6.5-23.7,13.2-30.3,16.7v180.2h2117C1584.4,789.3,1568.9,759.7,1559.1,727.5z"/>
				<path class="st18" d="M1556.2,793.9c-18.5-13.7-41.9-20-61.2-31.8c-11.3-6.9-20.2-18.8-30.4-24c-25.4-13.1-46.5-8.3-45.1-48.4
					c-29.1,14.1-50.1,8.5-77.1,5.5c-34.2-3.8-53.3,6.8-78.6-9.5c-30.9-19.9-28.5-11.4-65.7-11.4c-25.1,0-41.7-15.4-68.5-14.4
					c0.9-23.5-32.9-13.7-49.5-14.5c-4.5-26.5-32.1-59.7-53.5-40.3c-20.3,18.5-7.4,57.9-43,41.5c-11.7-5.4-14-22.6-22.5-27.2
					c-12.3-6.7-27,1.8-41.1,2.3c-20.1,0.7-34.1,1.8-55.3,6.2c-0.1-3.5-0.7-7.3-0.7-10.7c-16.8-2.1-32.2,6-48.9,4.9
					c7-32.6-31.9-17.1-47.1-7.8c-11.6-18.4-32.3-32.5-44.2-52.5c-14.6,12.6-2,34.4-13,49.1c-9.5,12.6-28.1,17.8-24.5-5.4
					c-19.2-2.1-36.3,6.9-54.2,1.9c-0.8-0.2-5-11.4-13.4-14c-16.4-5.1-28.4,8.3-42.7,9c-30,1.5-12.2-10.5-34.5-20.8
					c-15.9-7.3-30.3,0.6-35.9,17.4c-18.2-20.4-38-47.5-62.8-60.6c-4.3,12.6-1.9,25.2-6.8,37.3c-31.3-20.2-51.8-17.2-75.9,14.5
					c-8.2-1.3-19.9-8.8-25.3-8.6c-12.6,0.5-25,9.8-37.4,11.2c-9.2,1.1-21.5-3.8-36.1,0.4c-15.4,4.4-29.8,19.6-43.6,6.4
					c-17.4,6.8-34.2,3.7-35-17.6c-34.2,34.8-63.3,20.3-106.5,34.3c0.4-4.2-1.3-9.6-0.9-13.8c-8.5,3.1-18.7,5-28.2,5
					c0.3-4.1-1.4-9.6-0.9-13.6c-10.2,0.9-19.5,7.7-28.1,13.9c-8.6-19.5-21.1-6.8-28.9,5.7c-6.1-12.3-15.7-22.5-29.5-22.5
					c16.3,50.1-71.6,35.8-105.9,33.8c-19.7-1.2-36.2-5-57.4,0.6c-15.4,4.1-41.6,21.9-39.2-6.9c-18.7,1.3-34.6,12.2-33.1,31.3
					c-11.9,8.2-64.9-0.6-82.5-0.5c-21,0.1-43.2-5.7-63.4-0.6c-14.5,3.7-21.9,17.2-37.8,17.4c-9.9,0.1-22.6-8.2-32-11.6
					c-14.7-5.3-32.1-11-44.8-5.1v175h2120.7C1578.5,813.8,1568.6,803.1,1556.2,793.9z"/>
				<path class="st19" d="M1408.4,824.3c-16.8-20.6-104-30.9-113.6-39.3c1.7-1.7,3.8-5.7,5.6-7.3c-9.9-0.8-20.2-0.5-30.2-0.3
					c6.6-8.4,15.5-14.2,22-22.7c-20.9,6.2-42.7,10-57,28.2c15.8-17.6,26.1-48.2,38.8-69.5c-8.9,3.3-26.7,10-36.6,17.7
					c-11.4,8.8-17.9,26.5-30,33c-10.3,5.6-44.4,15.5-44.9-0.2c-13.2-0.4-17.8,13.4-28.5,14.9c-1.1-22.9,0.2-46.1-2.2-68.9
					c-4.9,17.6,0,36.3-8.3,53.5c-12.6,12.5-26.8,5.1-42.1,4.1c-19.5-1.3-46,10.6-46.4-17.8c-8.7,2-15.4,8.8-17.3,17.3
					c-1.3-18-1.6-37.7-0.4-55.8c1.1-16.9,13-36.1,11.3-51.8c-18.5,22.4-27.2,51.8-34.5,79.6c-4.1,15.7-14.1,40.3-34.6,37.9
					c-0.5-1.8,0.1-3.5-0.5-5.3c-9.3,1-18.4,5.4-26.3,10.8c3.3-11.1,9.3-24.3,8.8-35.8c-13,9.2-30.6,22.6-36.7,37.7
					c12.1-42,26.5-90.1,23-134.5c-10.2,22.2-3.8,49.9-16.9,73.1c-13.5,23.8-31.2,46-45.3,69.6c-9.4-16-2.7-47.7,1-65.8
					c4.8-23.2,26.4-53.2,26.3-75c-28.8,37.4-71.9,83.9-69.4,134.6C806.7,739,817,687.9,813.3,638c-8.5,13.6-6.6,41.4-9.3,58.4
					c-2.9,18.9-2.8,66.4-17.5,79c-8.6-20.5-11.7-50.7-12.1-78c-1.4,19.8-4.5,40.3-8.6,57.1c-10.6,43.6-12.7,8.7-37.1,20.7
					c-0.5-8.2-0.1-16.7-0.6-24.8c-8.4,5.2-16.2,13.3-20.7,22.6c-3.9-44.9-3-89.2-2.2-134.6c-19.9,35.4-6.4,81.1-19.9,117.4
					c-5.5,14.9-11.7,19.5-26.3,21.7c-5.7,0.9-9.8-3.3-16.3-2.5c-5.4,0.6-12.4,6.3-16.7,8.1c-3.3-9.9-1.9-20.3-2.6-30.5
					c-11.3,6.3-22.8,20.9-28.9,34c0.7-45.1,0.2-90.3,0.1-135.4c-0.3,20.5-3.1,42.4-8.2,61.9c-5.5,20.9-15.6,69.9-36.9,81.5
					c-39.8,21.7,4-72.3,11.9-84.6c-34.5,8.3-33.6,76.7-63.5,84.7c-1.3-24.6,0.5-49.5,1.7-73.8c0.8-16.6-0.7-33.4-0.1-50
					c0.6-14.9,5.8-31.8,3.4-46.4c-22.9,34-8.5,87.4-15.5,126.2c-1.7,9.2-10.4,64.9-29.3,50.3c-10.5-8.1-4.7-48.3-5.6-60.2
					c-10.8,15.1-26.4,60.4-49.8,53.9c-4-70.7,27.7-137.9,27-208.5c-11.1,27.3-12.7,58.1-19.5,86.7c-4.5,19.2-11.5,35.6-21.3,52.7
					c-5.6,9.7-22.4,47.9-34.5,50.3c-26.1,5.2-4-64.8-1.8-80.2c3.9-26.8,9-65.9-0.1-90.5c-1.2,49.1-13,120.5-56.3,150.9
					c-13.2-23.4-3.7-58.9,7.8-80.8c7.8-14.8,26.6-49,11.5-64.3c-1.5,23.8-5.8,27.8-19.8,46.4c-14.7,19.6-19.4,48.6-24.7,72.2
					c-3.4,15-8.1,65.4-29.1,47.2c-13.3-11.5-17.6-59.4-15.8-76.1c-10.1,26.9-15.9,53-18.8,80c-2.7,0.7-5.6,0.3-9.3-4.4
					c-5-6.3-3.5-23.6-3.4-31.2c-12.6,8.9-16.3,27.4-26.5,40.2C139,749,148.9,674,145.1,628.5c-26.2,37.5,8.5,127.3-40.1,162
					c-41.2,29.4-29.3-120.4-23.3-146.8c-7.4,26.3-19.6,46.5-23.9,76.8c-3.4,23.8-8.7,55.6-24.8,73.2c-9.3-22.9-15.8-48.9-15.2-73.8
					c-7.7,25.5-17.4,61.5-31.3,82.6c-27-60.1-10-126.1-30-185C-52.9,661-31.6,750.9-63,785.4c-41,45.2-26.3-107.1-32.1-124.9
					c-3.5,47.2-24,98.7-39.1,145.1c-24.9-24.2-20.1-84.1-19.6-118.2c-18.4,34.6-19,76.2-34.3,111.5c-19-41.5,3.6-107.7-20.4-144.2
					c-3.4,43.7,14.7,114.6-15.3,150.1c-14.7-28-9.7-63.7-12.2-94.8c-17.2,31.3-20.3,64.5-23.2,100.6c-31.3-47.6-6.8-99.4-14.4-150.1
					c-15.6,10.1-18.7,47.7-22.9,66.5c-6.8,30.9-17.5,58.6-29.8,87.1c-22.1-34.6,12.5-112.1-13.2-139.1
					c-8.3,19.8-24.3,123.1-47.3,118.4c-27.6-5.7-0.5-100.6-20.4-118.3c-7.3,18.6-13.5,114.5-34.7,119.2
					c-26.1,5.7-26-94.6-32.1-109.9c-12,32-13,61.1-15.1,94.7c-29.4-15.3-14.5-72.2-40.3-93c-2.7,3.5-5,7.3-6.9,11.3v119
					c0.7,2.7,1.4,5.3,2.1,8H1408.4z"/>
			</g>
			<path class="st16" d="M1380,546.7c-19.5,0-51.5,5.1-67.8-1.9h11.6c-52.4,0-107.3-1.3-156.9,5.9c-42,6.1-86.1-6-128.3-5.9
				c-33.6,0.1-67.3-3.7-101.2-2c-31.6,1.6-62.9,7-94.1,9.6c45.2,12.1,98,5.9,144.9,5.9c54.1,0,107.4,0.3,161.1,5.8
				c64.8,6.6,127.9-0.2,192.5,0c17.3,0,137.8,9.9,138.9-13.2C1448.9,542.7,1413.1,546.7,1380,546.7z"/>
			<g>
				<g>
					<g>
						<g>
							<path class="st20" d="M1077.2,477.6c0.1,0,0.1,0,0.2,0l-0.4-0.1C1077,477.5,1077.1,477.5,1077.2,477.6z"/>
							<path class="st21" d="M1147.5,502.8c-0.3-0.7-1.8-1.3-1.9-1.7c-0.1-0.8,1.3-1.1,1.4-1.7c0.3-1.3-0.9-0.9-1.3-1.5
								c-0.5-0.9,0.4-0.6,0.8-1.5c0.9-1.8-1.9-2-0.9-3.6c0.6-0.8,1.5-0.2,1.1-1.5c-0.2-0.9-1.4-1-1.4-1.9c3-0.5,0.7-2.3-0.5-3.6
								v-1.2c0.5-0.3,1.2-0.3,1.7-0.4c-0.3-0.8-1.1-1.3-1.7-1.9c0-0.2-0.1-0.5-0.2-0.7c0.9-0.3,2.1-0.4,1.8-1.4
								c-0.3-1.2-2.9-2-3.8-2.2c-1.7-0.5-3.7-0.4-5.5-0.4c0,0,0,0,0,0h-59.1c-0.3,0-0.6,0-0.8,0.1c0,0-0.1,0-0.1-0.1
								c-1.8,0-3.7-0.1-5.5,0.4c-0.9,0.3-3.4,1-3.8,2.2c-0.3,1.2,1.4,1.2,2.2,1.6c-0.6,0.8-1.9,1.3-2.3,2.4c0.7,0.2,1.8,0.2,2.3,0.9
								c-0.7,1.1-4.7,3.7-1.1,4.3c0,1-1.2,1-1.4,1.9c-0.4,1.3,0.5,0.7,1.1,1.5c1.1,1.5-1.8,1.8-0.9,3.6c0.4,0.8,1.3,0.6,0.8,1.5
								c-0.3,0.7-1.5,0.3-1.3,1.5c0.1,0.6,1.6,0.9,1.4,1.7c-0.1,0.4-1.6,1-1.9,1.7c0.2,0.2,1,0.7,1.1,1.1c0.4,1-0.4,1-0.8,1.8
								c-0.4,1.1-0.1,0.7,0.5,1.6c0.6,1,0.5,0.5,0.1,1.4c-0.2,0.6-0.8,0.5-0.5,1.3c0.2,0.6,1.1,0.4,1.1,1.3c0,0.5-1.4,1-1.2,1.8
								c0.1,0.5,0.9,0.6,1.3,0.9c-0.3,0.8-1.2,1.2-1.3,2.2c0.4,0.1,0.8,0.2,1.2,0.3c-0.1,0.8-0.8,1.2-0.6,2c0.4,0,0.8,0,1.2,0
								c-0.2,0.4-0.2,0.7-0.2,1.1c0.8,0.3,1.4,0.9,2.2,1.2c0.9,0.2,1.8,0.4,2.7,0.4c1.1,0.1,2.2,0,3.3-0.3c0.3,0,0.6,0.1,0.9,0.1
								h59.4c1,0.2,2,0.3,3,0.2c0.9-0.1,1.9-0.2,2.7-0.4c0.8-0.2,1.4-0.9,2.2-1.2c0-0.4,0-0.8-0.2-1.1c0.4,0,0.8,0,1.2,0
								c0.2-0.9-0.5-1.3-0.6-2c0.4-0.1,0.8-0.2,1.2-0.3c-0.1-1-1-1.3-1.3-2.2c0.4-0.3,1.2-0.4,1.3-0.9c0.1-0.8-1.2-1.3-1.2-1.8
								c0-0.9,0.9-0.7,1.1-1.3c0.3-0.8-0.2-0.7-0.5-1.3c-0.3-0.9-0.5-0.4,0.1-1.4c0.6-0.9,0.9-0.6,0.5-1.6c-0.3-0.8-1.1-0.8-0.8-1.8
								C1146.5,503.5,1147.2,503,1147.5,502.8z"/>
							<path class="st20" d="M1137.3,477.6c0.1,0,0.2-0.1,0.3-0.1l-0.4,0.1C1137.2,477.6,1137.2,477.6,1137.3,477.6z"/>
						</g>
						<g class="st22">
							<path class="st20" d="M1147.5,502.8c-0.3-0.7-1.8-1.3-1.9-1.7c-0.1-0.8,1.3-1.1,1.4-1.7c0.3-1.3-0.9-0.9-1.3-1.5
								c-0.5-0.9,0.4-0.7,0.8-1.5c0.9-1.8-1.9-2-0.9-3.6c0.6-0.8,1.5-0.2,1.1-1.5c-0.2-0.9-1.4-1-1.4-1.9c3-0.4,0.7-2.3-0.5-3.6
								v-1.2c0.5-0.3,1.2-0.3,1.7-0.4c-0.3-0.8-1.1-1.3-1.7-1.9c0-0.2-0.1-0.5-0.2-0.7c0.9-0.3,2.1-0.4,1.8-1.4
								c-0.3-1.2-2.9-2-3.8-2.2c-1.7-0.5-3.7-0.4-5.5-0.4c0,0,0,0,0,0l-15.8-0.2c-5,5.2-36.7,38.4-44.2,43.5l60.3,0.1
								c1,0.2,2,0.3,3,0.2c0.9,0,1.9-0.2,2.7-0.4c0.8-0.2,1.4-0.9,2.2-1.2c0-0.4,0-0.8-0.2-1.1c0.4,0,0.8,0,1.2,0
								c0.2-0.9-0.5-1.3-0.6-2c0.4-0.1,0.8-0.2,1.2-0.3c-0.1-1-1-1.3-1.3-2.2c0.4-0.3,1.2-0.4,1.3-0.9c0.1-0.8-1.2-1.3-1.2-1.8
								c0-0.9,0.9-0.6,1.1-1.3c0.3-0.8-0.2-0.7-0.5-1.3c-0.3-0.9-0.5-0.4,0.1-1.4c0.6-0.9,0.9-0.6,0.5-1.6c-0.3-0.8-1.1-0.8-0.8-1.8
								C1146.5,503.6,1147.2,503.1,1147.5,502.8z"/>
							<path class="st20" d="M1137.3,477.6c0.1,0,0.2-0.1,0.3-0.1l-0.4,0.1C1137.2,477.6,1137.2,477.6,1137.3,477.6z"/>
						</g>
						<path class="st23" d="M1087,476.4c-0.4,0-0.8,0.4-0.8,0.9v44c0,0.5,0.3,0.9,0.8,0.9c0.4,0,0.8-0.4,0.8-0.9v-44
							C1087.8,476.8,1087.5,476.4,1087,476.4z"/>
						<path class="st23" d="M1129.7,476.4c-0.4,0-0.8,0.4-0.8,0.9v44c0,0.5,0.4,0.9,0.8,0.9c0.4,0,0.8-0.4,0.8-0.9v-44
							C1130.4,476.8,1130.1,476.4,1129.7,476.4z"/>
					</g>
					<rect x="1051.1" y="536.2" class="st24" width="14" height="3.3"/>
					<g>
						<polygon class="st25" points="1002.7,447.6 1003.1,456.4 1009.8,456.1 1009.4,447.3 						"/>
						<path class="st26" d="M1001.6,441.5c-0.7-1.2-2.4-0.6-2.9,0.3l0.2-0.3c-0.6,0.3,0,2,0.1,2.5c0.5,0,1,0.1,1.5,0.1
							c0-0.2,0-0.5,0.1-0.7c0.1,0.2,0.2,0.4,0.3,0.6c0.3-0.1,0.5,0,0.8-0.2c-0.2-0.3-0.1-0.9,0-1.3
							C1001.5,442.3,1001.8,441.9,1001.6,441.5z"/>
						<path class="st27" d="M999.4,453.4l0.2,0.1C999.6,453.4,999.5,453.4,999.4,453.4C999.5,453.4,999.5,453.4,999.4,453.4z"/>
						<path class="st27" d="M998.8,441.3c-0.5,1.5-0.2,2.5,0,4c0.1,1.2-0.8,1.9-0.7,3.1c0.5,0.2,0.7,0.4,0.8,0.9
							c0.1,0.2-0.1,0.5,0,0.8c0.1,0.2,0.3,0.3,0.4,0.5c0.2,0.8-0.2,2,0.3,2.8c3.1,0.2,7.1-1.5,8.5-4.6c1.5-3.3,0.4-7.6-2.2-9.9
							C1003.6,436.8,999.7,438.5,998.8,441.3z"/>
						<path class="st25" d="M1007.1,444c-0.8-0.2-1.1,1-1.1,1l0.1,0.1c0-0.5,0.7-1,1.1-0.8c0.4,0.2,0.4,1.1,0.4,1.5
							c-0.1,1-0.6,1.9-1.2,2.7c0.7-0.8,1.6-2.2,1.6-3.3C1007.9,444.6,1007.6,444.1,1007.1,444z"/>
						<path class="st24" d="M998.4,439.1c0.2,0,0.1-0.1,0.2-0.2l-0.1-0.1C998.5,438.9,998.4,439,998.4,439.1z"/>
						<path class="st24" d="M1005.9,436.1c-1.5-0.4-3.1-0.4-4.5,0.2c-0.9,0.4-2.5,1.4-2.9,2.5l0.1,0.1c-0.1,0.1,0,0.3-0.2,0.2
							c0-0.1,0.1-0.2,0.1-0.3l0,0c-1.1,1.3-2.3,3.4-0.6,4.9c0.2-0.4,0.5-0.8,0.7-1.2c0,0.5,0,1.1,0.3,1.5c0.2-0.2,0.4-0.8,0.7-0.9
							c0.4-0.2,0.3,0.1,0.5,0.1c0.3,0,0.2,0.2,0.7,0c0.2-0.1,0.4-0.6,0.5-0.8c0.2,0.9,1.3,0.8,1.9,1.4c0.7,0.8,0.9,1.7,1.1,2.7
							c0,0,0.2,0,0.2,0c0.4-0.7,0.9-1.6,1.6-2c0.8-0.3,1.7-0.1,1.9,0.9c0.1,0.4-0.2,1-0.1,1.4c0.1,0.4,0.5,0.7,0.7,1.1
							c0.5,0.8,0.7,1.6,0.9,2.5c1.3-2.7,2.9-5.3,2.5-8.6C1011.7,438.6,1008.5,436.8,1005.9,436.1z"/>
						<path class="st28" d="M1007.4,437c-0.4-0.2-0.8-0.4-1.2-0.5h0.2c-0.8-0.4-2.8-0.3-3.2,0.8c-0.2,0.6,0.7,0.4,1.2,0.4
							c0.5,0,2.5-0.5,2.8,0c0.3,0.4-0.6,1.2-0.8,1.5c-0.2,0.3-1.3,2.2-0.6,2.5c0.4,0.1,1.2-1.1,1.5-1.3c0.4-0.4,0.8-0.7,1.3-0.7
							c0,0.5-0.1,0.9-0.2,1.4c0,0.7,0.1,0.6,0.5,0.2c0.8-0.7,1.1-1.1,1.3,0.3c0.1,0.5,0.1,2.9,0.9,1.8c0.4-0.5,0.5-1.5,0.3-2
							C1010.9,439.5,1008.8,437.8,1007.4,437z"/>
						<path class="st24" d="M1008.4,436.2c-1.5-0.7-4-1.3-5.6-0.4c-0.7,0.4-1.3,1.1-1.5,1.9c-0.1,0.5,0.5,3,0.3,3.1l0.1,0.1
							c-0.3,0.7-0.2,1.8-0.2,2.5c0.1,1.2,0.3,2.3,0.5,3.5c0.2,0.8,0.4,1.6,0.7,2.4c0.1,0.3,0.3,1.4,0.6,1.5c0.3,0.2,1.2-0.4,1.6-0.4
							c0.3,0,0.5,0.2,0.7,0.2c0.3,0.1,0.4-0.1,0.8-0.1c0.4-0.1,0.3,0,0.7,0.1c0.1,0,0.1,0.2,0.3,0.3c0.2,0,0.3-0.2,0.5-0.2
							c0.5,0,0.8,0.9,1.3,1.1c0.5,0.2,1.3,0.6,1.8,0.6c0.8,0,1-1,1.3-1.6c1.1-2.1,1.1-4.5,1.1-6.8c0-1.7-0.3-3.4-1.1-4.8
							C1011.2,437.6,1010,436.9,1008.4,436.2z"/>
						<path class="st24" d="M1004.6,435.4c-3.2,0-6.1,0.9-8,3.8c-0.5,0.8-0.6,1.8-0.4,2.7c0.1,0.4,1.3,2.4,1.7,1.6
							c0,0.1,0.1,0.2,0.1,0.3c0.1-0.1,0.3-0.1,0.4-0.2c0,0.1,0.1,0.2,0.1,0.3c0.1-0.1,0.3-0.1,0.4-0.2c0,0.1,0.1,0.2,0.1,0.3
							c0.1-0.1,0.2-0.2,0.3-0.3c0.1,0.3,0.3,0.3,0.5,0c0.1,0.4,0.4,0.3,0.5,0c0,0.5,0.3,0.3,0.5,0c0.3,0.9,1.2-0.3,1.4-0.7
							c0.8-1.1,1.5-2.4,1.7-3.8c0.1-0.9,0-1.6-0.1-2.5c0-0.8,0.3-1,0.9-1.2c-0.1,0-0.1,0-0.2,0L1004.6,435.4z"/>
					</g>
					<path class="st29" d="M978.9,484.7c-1.7-0.7-5.4,0.4-4.2,1.5c1.2,1.1,1.2,1.1,2.9,1.8c1.7,0.7,2.7,2.3,3.3,0.8
						C981.6,487.2,980.7,485.4,978.9,484.7z"/>
					<path class="st24" d="M1017.1,473.4c-4.1,1.1-2,5.8-2.3,9.6c-0.4,4.4-0.9,10.1-4.6,12.7l-0.7,0.4c0.2,4.9,6,4.6,8.7,2.8
						c3-2.1,4.4-6.5,4.6-10.3C1023,483.2,1024.4,471.5,1017.1,473.4z"/>
					<rect x="986.8" y="496.5" class="st24" width="28.3" height="27"/>
					<rect x="975.5" y="511.9" class="st24" width="31" height="27.7"/>
					<path class="st30" d="M1014.4,487.4l-11.2,0.3l-2.8-0.3c0,0-14.3,3.6-16.1,5c-2.5,2.1-7.3,28.6-7.3,28.6l9.8,1.7
						c0,0,2.4-20.5,3.5-22.2c0.3-0.4,1.3-1.4,1.8-1.3c5.3,0.6,17.3,2.1,19.7-1.8c3.8-6.2,2.9-8.9,2.9-9.2L1014.4,487.4z"/>
					<path class="st31" d="M994.4,475.1c-0.6,0.6-1.5,1.1-2.3,1.5c-2.1,1.1-4.4,2-6.5,3.1c-0.9,0.5-1.8,1.1-2.7,1.6
						c-0.6,0.4-2.3,1.7-2.9,1.7c-0.5,0-4.4-2.1-4,0.2c1.2,0.5,2.3,0.5,3.5,1.3c1.3,0.9,1.5,0.6,3-0.2c3.4-1.8,7-3.2,10.5-4.5
						c0.8-0.3,2.2-0.4,2.8-1c0.6-0.6,1-2.3,1.3-3.2c0.6-1.5,2.1-3.8,1.3-5.3l0.4-3.2C998.1,468.8,995.4,474,994.4,475.1z"/>
					<path class="st30" d="M1009.8,455.5c0,0-3.7-0.8-6.4,0.5l-1.8,1.1c-3.7,8.1-3.9,16.3-3.6,14.2c0.6-4-1.3,13.7-2,18.8
						c5.6,0.1,13.2-0.5,18.8-1c-0.5-7.4-2.4-23.9-3.2-29.2C1011.3,458.3,1009.8,455.5,1009.8,455.5z"/>
					<path class="st29" d="M1007.1,456.9c-1-0.1-2.3-0.1-3.2,0c-0.7,0.1-1.5,0.3-2,0.8c-0.8,0.8-1.5,1.8-2,2.8
						c-0.6,1.3-1.1,2.8-1.3,4.2c-0.2,1.3-0.3,2.6,0.2,3.8c0.6,1.6,1.4,3.2,2.7,4.4c1.3,1.1,3.5,1.1,5.1,0.5c1.9-0.7,3.9-2,4.3-4
						c0.6-2.6,0.9-5.8,0.2-8.4C1010.7,459.5,1008.9,457,1007.1,456.9z"/>
					<path class="st25" d="M995.8,477.2c0,0-5,1.4-8.5,3.6c-2,1.2-6.6,3.7-6.6,3.7l0.5,2.4c0,0,5.3-0.9,7.6-1.4
						c2.8-0.7,8.1-2.7,8.1-2.7s2.4-0.6,2.7-1.2c2.4-4.3,11.6-17.1,11.6-17.1l-6.9-3.9L995.8,477.2z"/>
					<path class="st25" d="M981.1,484.4l-0.2-0.1c-1.5-0.2-2.9-1.6-4.6-1.4c-1.7,0.3-1.8,2-1.7,3.4c0.7,0,1.1-0.6,1.8-0.6
						c0.8,0.1,1.1,0.8,1.7,1.2c1.4,1,2.5,0.2,3.9-0.2C982,486.2,981.5,484.4,981.1,484.4z"/>
					<path class="st29" d="M1003.6,457.8c-0.5,0.1-1,0.2-1.5,0.4c-1,0.5-1.6,1.6-2.1,2.6c-0.4,0.7-0.8,1.1-0.2,1.7
						c0.5,0.5,9.4,5.2,9.9,5.2c0.4-1.2,1.5-2.1,1.6-3.4c0.1-1.3,0.1-2.7-0.4-3.8C1009.8,457.6,1006.3,457.3,1003.6,457.8z"/>
					<path class="st29" d="M1002.1,458.2c0.1,0,0.1-0.1,0.1-0.1l-0.3,0.1C1002,458.3,1002.1,458.2,1002.1,458.2z"/>
					<path class="st32" d="M1009.3,458.4c-0.4-0.3-1-0.6-1.5-0.7l0.1,0.2c1.1,3-3.1,5.2-5.5,5.7c0.9,0.8,2.4,1.7,3.6,2.1
						c0.8,0.3,2.6,1.7,3.2,1.3c1.1-0.8,1.2-3.3,1.2-4.4C1010.5,461.1,1010.5,459.4,1009.3,458.4z"/>
					<rect x="971" y="529.5" class="st33" width="33.8" height="15.7"/>
					<g>
						<path class="st24" d="M1025.4,503.9c-16.8,0-30.5,13.6-30.5,30.5c0,16.8,13.6,30.5,30.5,30.5c16.8,0,30.5-13.6,30.5-30.5
							C1055.9,517.5,1042.3,503.9,1025.4,503.9z"/>
						<path class="st21" d="M1025.4,518.8c-8.9,0-16.1,7-16.1,15.6c0,8.6,7.2,15.6,16.1,15.6c8.9,0,16.1-7,16.1-15.6
							C1041.5,525.7,1034.3,518.8,1025.4,518.8z"/>
						<path class="st24" d="M1025.4,529.1c-2.9,0-5.2,2.3-5.2,5.2c0,2.9,2.3,5.2,5.2,5.2c2.9,0,5.2-2.3,5.2-5.2
							C1030.6,531.5,1028.3,529.1,1025.4,529.1z"/>
					</g>
					<path class="st29" d="M1025.4,492.7c-16.9,0-30.5,14.5-30.5,32.5c0,17.9,1.7-19.1,32-19.1c27.2,0,29,37,29,19.1
						C1056,507.2,1042.3,492.7,1025.4,492.7z"/>
					<path class="st24" d="M976.7,488c-0.4-0.3-0.9-0.2-1,0.1l-9.2,17.1c0.5,0.3,1,0.7,1.4,1.1l9.2-17.2
						C977.3,488.7,977.1,488.2,976.7,488z"/>
					<path class="st24" d="M969.7,482c-0.3-0.2-0.7-0.1-0.9,0.3c-0.2,0.4-0.1,0.9,0.2,1.1l14,9.4c0.3,0.2,0.7,0.1,0.9-0.3
						c0.2-0.4,0.1-0.9-0.2-1.1L969.7,482z"/>
					<path class="st30" d="M1004.7,456.1c-1.7-0.5-3.1,1-4.1,2.2c-0.7,0.8-1.3,1.8-2.1,2.5c-0.6,0.6-1.8,0.9-2.1,1.7
						c-0.6,1.3,0.2,3.5,0.6,4.7c0.5,1.5,0.7,2.7,0.8,4.3c0,0.3,0.1,0.5,0.1,0.8c0.9-1.3,2.1-3.4,2.1-4.9c0-2-0.2-4,0.4-5.9
						c0.4-1.3,1.1-2.4,2.1-3.4C1002.9,457.7,1005.3,456.6,1004.7,456.1L1004.7,456.1z"/>
					<path class="st29" d="M1142.7,521.5h-70.9c-4.5,0-8.1,1.3-8.1,2.9v20.9c0,1.6,3.6,2.9,8.1,2.9h70.9c4.5,0,8.1-1.3,8.1-2.9
						v-20.9C1150.7,522.9,1147.1,521.5,1142.7,521.5z"/>
					<polygon class="st34" points="1060,527.8 1152.9,527.6 1156.1,519.4 1058.3,519.4 					"/>
					<g>
						<path class="st24" d="M1082.6,533.8c-8.6,0-15.6,7-15.6,15.6c0,8.6,7,15.6,15.6,15.6c8.6,0,15.6-7,15.6-15.6
							C1098.2,540.7,1091.2,533.8,1082.6,533.8z"/>
						<path class="st21" d="M1082.6,541.4c-4.5,0-8.2,3.6-8.2,8c0,4.4,3.7,8,8.2,8c4.5,0,8.2-3.6,8.2-8
							C1090.8,545,1087.1,541.4,1082.6,541.4z"/>
						<path class="st24" d="M1082.6,546.7c-1.5,0-2.7,1.2-2.7,2.7c0,1.5,1.2,2.7,2.7,2.7c1.5,0,2.7-1.2,2.7-2.7
							C1085.2,547.9,1084,546.7,1082.6,546.7z"/>
					</g>
					<g>
						<path class="st24" d="M1133.9,533.8c-8.6,0-15.6,7-15.6,15.6c0,8.6,7,15.6,15.6,15.6c8.6,0,15.6-7,15.6-15.6
							C1149.5,540.7,1142.5,533.8,1133.9,533.8z"/>
						<path class="st21" d="M1133.9,541.4c-4.5,0-8.2,3.6-8.2,8c0,4.4,3.7,8,8.2,8c4.5,0,8.2-3.6,8.2-8
							C1142.1,545,1138.4,541.4,1133.9,541.4z"/>
						<path class="st24" d="M1133.9,546.7c-1.5,0-2.7,1.2-2.7,2.7c0,1.5,1.2,2.7,2.7,2.7c1.5,0,2.7-1.2,2.7-2.7
							C1136.6,547.9,1135.4,546.7,1133.9,546.7z"/>
					</g>
					<path class="st29" d="M966.7,502.1c0,0-47.9,0-56.3,0v35.1c0,0.1,0,8.1,0,8.1s65.2,0,68.9,0l-0.9-22.3
						C975.5,518.4,970.3,509.2,966.7,502.1z"/>
					<path class="st35" d="M922.4,516.9c-1.3,0-2.5,0.2-3.6,0.6l1.1,18.6c1.1,0.4,0.2,0.8,1.5,0.8c5.6,0,11.2-5,11.2-10.3
						C932.6,521.2,928,516.9,922.4,516.9z"/>
					<g>
						<path class="st24" d="M937,529.1c-9.8,0-17.7,7.9-17.7,17.7c0,9.8,7.9,17.7,17.7,17.7c9.8,0,17.7-7.9,17.7-17.7
							C954.8,537,946.8,529.1,937,529.1z"/>
						<path class="st21" d="M937,537.8c-5.2,0-9.4,4.1-9.4,9.1c0,5,4.2,9.1,9.4,9.1c5.2,0,9.4-4.1,9.4-9.1
							C946.4,541.8,942.2,537.8,937,537.8z"/>
						<path class="st24" d="M937,543.8c-1.7,0-3,1.4-3,3c0,1.7,1.4,3,3,3c1.7,0,3-1.4,3-3C940.1,545.2,938.7,543.8,937,543.8z"/>
					</g>
					<path class="st24" d="M919.8,517.2c-1.3,0-3.3,3.7-3.3,9.4c0,5.7,2.9,10.3,4.2,10.3c1.3,0,0.5-4.6,0.5-10.3
						C921.2,520.9,921.1,517.2,919.8,517.2z"/>
					<path class="st21" d="M918.1,520.9l-0.1-0.2c-1.1,1.1-0.7,4-0.7,5.6c0,0.6,0.5,5.5,1.7,4.1c0.4-0.5,0.3-2.3,0.3-2.9
						c0-1,0-2.1,0-3.1C919.2,523.2,919.3,521.3,918.1,520.9z"/>
					<rect x="925.7" y="482.2" class="st29" width="3.1" height="20.9"/>
					<g>
						<rect x="934.4" y="511.4" class="st36" width="34.5" height="15.7"/>
						<path class="st29" d="M967.1,522.3h-30.6c-0.3,0-0.6,0.5-0.6,1.2c0,0.7,0.3,1.2,0.6,1.2h30.6c0.3,0,0.6-0.5,0.6-1.2
							C967.7,522.8,967.4,522.3,967.1,522.3z"/>
						<path class="st29" d="M967.1,518h-30.6c-0.3,0-0.6,0.5-0.6,1.2c0,0.7,0.3,1.2,0.6,1.2h30.6c0.3,0,0.6-0.5,0.6-1.2
							C967.7,518.6,967.4,518,967.1,518z"/>
						<path class="st29" d="M967.1,513.6h-30.6c-0.3,0-0.6,0.5-0.6,1.2c0,0.7,0.3,1.2,0.6,1.2h30.6c0.3,0,0.6-0.5,0.6-1.2
							C967.7,514.1,967.4,513.6,967.1,513.6z"/>
					</g>
				</g>
				<g>
					<path class="st37" d="M1145.3,518.9c0.4,0,0.8,0,1.1,0c0,0,0,0,0-0.1c0.2-0.9-0.5-1.3-0.6-2c0.4-0.1,0.8-0.2,1.2-0.3
						c0,0,0,0,0,0c0,0,0,0,0,0c-0.1-1-1-1.3-1.3-2.1c0.4-0.3,1.2-0.4,1.3-0.9c0,0,0,0,0-0.1h0c0.1-0.8-1.1-1.3-1.2-1.8
						c0-0.8,0.9-0.6,1.1-1.3c0.1-0.2,0.1-0.4,0.1-0.5c0-0.4-0.4-0.4-0.5-0.9c-0.2-0.4-0.3-0.5-0.3-0.6c0-0.1,0.1-0.3,0.4-0.7
						c0.5-0.7,0.8-0.7,0.7-1.1c0-0.1,0-0.1,0-0.2c-15.4,5.2-31.2,9.5-47,13.3c-12.4,2.9-24.9,5.9-37.5,8.5l1,0v8.4h-7.9
						c0-0.6,0.1-1.3,0.1-1.9c0-1.5-0.1-2.9-0.3-4.3c0.1,0,0.2-0.3,0.3-0.8c-8.5,1.7-17,3.1-25.5,4.3c-32.2,4.3-64.2-0.1-96.4-1.7
						c-7.9,1.6-15.8,3.1-23.7,4.5v0.9c0,0.1,0,8.1,0,8.1s3.6,0,9.1,0c0,0.5-0.1,1-0.1,1.6c0,9.8,7.9,17.7,17.7,17.7
						c9.8,0,17.7-7.9,17.7-17.7c0-0.5,0-1.1-0.1-1.6h24.6v-0.1H997c4.4,11.5,15.4,19.7,28.5,19.7c15,0,27.5-10.9,30-25.3h8.3v5.9
						c0,1,1.3,1.8,3.3,2.4c0,0.5-0.1,1-0.1,1.6c0,8.6,7,15.6,15.6,15.6c8.6,0,15.6-7,15.6-15.6c0-0.3,0-0.7-0.1-1h20.3
						c0,0.3-0.1,0.7-0.1,1c0,8.6,7,15.6,15.6,15.6c8.6,0,15.6-7,15.6-15.6c0-0.8-0.1-1.5-0.2-2.3c0.9-0.5,1.4-1,1.4-1.7v-17.8l2.2,0
						l3.2-8.2h-10.7C1145.5,519.4,1145.4,519.2,1145.3,518.9z"/>
				</g>
			</g>
		</g>
		<path class="st38" d="M1617.2,646.6c6.1,49.1,3.6,99.5,6,148.9c0.5,9.7,0.7,19.3,0.7,28.8h9.3c-0.3-8.9-0.8-18-1.7-27.4
			c-2.6-27.7-6.2-55.7-6-82.9c0.2-19.7,3.7-59.5-9.3-77.1L1617.2,646.6z"/>
		<path class="st18" d="M1637.4,800.4c2.8-8.8,4.8-17.9,4.1-25.9L1637.4,800.4z"/>
		<path class="st18" d="M1761.7,797.2C1769,776,1777,755,1785,734C1771.7,754.1,1759.6,775.3,1761.7,797.2z"/>
		<path class="st18" d="M1638.3,824.3h52c-2-29.4-2.6-61.8,2-91c4.6-29.1,19.9-57,24.5-84.7c-31.1,39.2-54.1,87.9-69.5,136
			C1643.1,797.6,1640.6,810.9,1638.3,824.3z"/>
		<path class="st18" d="M1624.1,748.8c-4.2-42-34.2-90.8-60.2-123.2c-17-21.3-38.2-38.2-60.1-54.2c-15.2-11.1-41.8-33.5-60.1-37.4
			c-19.2-4.1-17.6,5.4-25.7,21.3c-8.5,16.9-30.6,36.4-28.3,56c10.4-3.4,19.4-20.8,24.5-30.8c10.9-21.6,17.4-27.3,43-17
			c29.3,11.9,51.8,38.2,69.8,63c40.9,56.3,54.9,128.5,64.9,197.7h41.8l3.8-23.9c-2.3,7.4-5.3,14.7-7.7,20.9
			C1622.1,805.2,1626.3,770.3,1624.1,748.8z"/>
		<path class="st18" d="M1809.8,694.9c-6.1,12.4-15.7,25.4-24.8,39.1c-8,21-16,42-23.3,63.2c-2.1-21.8,9.9-43.1,23.3-63.2
			c11-28.9,21.9-57.9,31.1-87.5c15-48.4,31.5-120.5,15-170.5c-6.9,13.8-4.8,38-9.2,54.5c-9.7,36.3-18.8,72.3-36.8,105.8
			c-19.5,36.4-52.1,62.4-69.5,100.7c-10.5,23.1-10.6,69.6-24.9,87.1h107.4c8.7-21.7,18.6-43,25.7-63.3
			c11.6-33.3,18.7-68.4,25.1-102.9c4.2-22.5,12.1-46.6,9.3-69.6C1839.9,620.1,1826.6,661,1809.8,694.9z"/>
		<g>
			<g>
				<path class="st18" d="M1897.8,435.3c3.1-1.4,7.9-0.7,11.7-0.9c-4.5-14.2-26.2-16-36.4-19.7c3.9-3.3,12.1-3.3,7.3-8.5
					c-7.5-8.3-26.3,2-34.9,1.4c3.1-2.9,12.5-7.1,7.7-11.2c-6.8-5.9-29.7,4.7-37,7.3c2.9-3.1,6.8-7,7.7-11.1
					c-13,0.6-30.4,13.9-35.8,26.6c1.2-6,5.7-11.6,5.1-17.8c-11.2,5.4-25,17.4-27.7,31c1-4.4,0.9-9.2,0.7-13.8
					c-11.1,3.2-13.3,20.9-20.3,29c0.7-4.9,3.7-12.4,1.2-17.1c-7.5,7.3-18.3,19.3-18.1,31.4c0-4.9,0.1-9.9-0.1-14.7
					c-11.8,1.2-13.8,21.8-16.2,31.6c-0.9-4.4-0.9-11-2-15.7c-9.2,1.6-14.4,21.8-15.6,30.5c-1-4.7-0.5-12.3-3.3-16.2
					c-12.3,15.4-12.6,31.8-12.6,50.7l-2.2-4c-9.8,14.1,0.4,20.5,5.8,33.3c-5.1-3-11.2-12.8-13.1-3.3c-1.8,9.4,10.2,14.3,10.1,22.3
					c-5.5-0.7-8.3-8.4-13.7-7.7c0.3,10.4,8.9,31.8,21,30.7c0-0.6,0-1.5,0.1-2c0,12.2,0.6,27.9,15.9,22.6
					c11.8-4.1,31.4-26.6,29.3-40.9c-5.7-0.6-12.7,3.6-17.2,7.1c8.6-6.3,29.7-28.3,28.9-40.5c-7.2,0.9-14.1,5.9-21.1,6.9
					c3.3-5.4,17.8-13.5,16.7-20.4c-4.5-0.5-8.7,1.6-13,2.1c5.5-6.5,16.6-12,24-16.6c5.8-3.6,16.9-5.9,20.5-11.7
					c-5.3-4.3-15.5-1.4-21.8-1.9c12.5-7,29.2-10.1,41.7-17.4c12-7-6.1-11.8-13-14.1c17.1-3,33-4.7,50.2-5.7
					c1.3-8-9.2-15.4-15.1-18.2c14.5-0.9,29.3,6.6,43.6,4.7c1-6.1-2.4-12.2-6-16.4c3.7,3.4,10.7,5.7,15.6,8.8
					c4.9,3.1,10.6,11.6,16.7,10.8c1.1-8.2-3-16-8-21.8c7.8,6.4,16.6,11.5,24.2,18.2c4.7,4.1,9.2,14.3,16,13.2
					C1917.2,453.6,1905.6,442.4,1897.8,435.3z"/>
			</g>
			<path class="st18" d="M1697.4,637.7c0-7.9,1.2-17.1,0-24.9c-0.8-5.4-8-21.5-14.3-13.1l5.5,1.2c0,56.4,0.9,111.2,7.4,167.1
				c2.2,18.9,4.6,37.8,7,56.7h4c-6.2-42.1-4.2-84.5-7.4-127.5C1698.2,677.6,1697.4,657.9,1697.4,637.7z"/>
		</g>
		<g>
			<g>
				<path class="st18" d="M1536.2,530c-1.7-4.5,4.6-9.9,1.6-14.7c-3-4.9-4.8,1.9-7.3,4.8c0.6-8.3,5.5-14.1-3.3-19.8l-0.5,2.7
					c-3.9-10.5-7.4-19.6-18-25.4c-0.9,2.8,1,6.9,1.3,9.8c-2.5-4.6-9.8-14.7-15.7-13.5c0.3,2.9,1.7,6.5,2,9.2
					c-3.4-4.9-8.9-16-16.3-14c0.8,2.8,2,5.5,3,8.2c-2.4-6.8-11.3-11.1-17.4-13.5c-0.5,3.2,2.8,6.7,4.2,9.3
					c-5.9-3-10.8-12.4-18.2-11.6c0.8,2.6,1.7,5.3,3.2,7.5c-4.4-7-15.3-10.6-23.2-11.1c0.9,3.5,4.8,5.7,6.7,8.8
					c-5.9-5.9-19.2-9.4-27.2-6.8c1.3,2,4.6,3.4,6.9,4.4c-4.9,0.2-21-0.6-23.9,4.2c-2.1,3.3,4.5,3.6,7,4.5c-5.1,2.2-18.6,0.7-21.5,7
					c-1.8,4,3.1,2.2,6.2,3.1c-5.5,4.3-18.3,10.2-18.1,19.1c2.3-0.7,5.2-2.2,7.3-2.1c-3.3,5.7-8,14.5-4.3,21.1c4.4-0.9,5-7.6,7-10.9
					c3.3-5.4,7.6-10.2,11-15.5c-1.9,4.4-2.7,9.6-0.4,13.9c3.9-0.9,5.6-6.9,7.9-9.7c2.3-2.8,6.1-5.7,7.7-8.4
					c-1.3,3.2-2.1,7.3-0.3,10.5c9-2.1,16.5-9.6,25.5-12.3c-3,2.9-7.8,9.3-5.4,13.5c10.7-3.3,20.6-5.9,31.6-8
					c-3.7,2.8-13.7,9.5-5,10.8c9.1,1.3,19.8-0.7,28.9,0.4c-3.7,1.7-10.5,2.4-12.8,5.9c3.4,2.4,10.6,1.2,14.8,1.9
					c5.4,0.9,13.2,1.5,17.9,3.9c-2.7,0.6-5.7,0.4-8.3,1.7c0.7,4.1,11.2,5.4,14.3,7.6c-4.5,1-9.7-0.3-14.2,0.8
					c2.1,6.9,19.4,14.5,25.9,16.1c-3.5-0.9-8.6-1.7-11.9-0.1c1.7,8.4,18.2,16.6,26.2,16.2c10.3-0.5,7.5-9.3,5-16.1
					c0.2,0.3,0.3,0.8,0.5,1.1c7.6-2.1,8.4-15.9,6.4-21.8C1539.5,523.5,1539.3,528.4,1536.2,530z"/>
			</g>
			<path class="st18" d="M1535.9,545.6l3.1-1.9c-5.5-3.3-6.6,7.3-6,10.5c0.9,4.6,3.5,9.5,5.1,13.9c4.1,11.2,7.7,22.4,10.8,33.7
				c7.3,26.3,18.1,50.8,22.5,77.5c2.2,13.6,4.1,27.5,8.1,40.6c1.8,5.9,4.1,11.7,5,17.7c0.7,4.4-1.9,15.2,6,10.5
				c-9.5-35.4-16.8-71.9-25-107.7C1558.1,607.7,1547.5,577,1535.9,545.6z"/>
		</g>
		<g>
			<g>
				<path class="st18" d="M1624.7,304c-0.1,1.1-0.2,2.3-0.3,3.4C1624.6,306.1,1624.7,305,1624.7,304z"/>
				<path class="st18" d="M1596.2,385.8c-0.4-1.4-0.9-2.7-1.5-3.8C1595.2,383.3,1595.7,384.5,1596.2,385.8z"/>
				<path class="st18" d="M1637.1,576.3c5.5-12.6,12.1-25.3,11.7-39.2c-6-1.3-10.4-2.5-16.1,1.1c2.6-7.9,23.7-58.4-0.5-39
					c4.2-9.5,16.7-60-7.7-36.4c3.5-10.8,14-25.6,12.7-37.2c-1.1-9.6-7-17.9-12.8-3.8c4.7-11.4,9.7-22.9,13.7-34.4
					c-6.7-2.9-10.2-3-15.4,3.1c7.8-11.4,14.1-23.1,18.8-36.4c-6.8-1.1-7.8-3.5-14.7,1.3c4.6-10.5,15.8-28.5,11.5-37.9
					c-2,0.5-4.5,1.1-6.3,1.6c0.4-13,18.8-41.4-1.4-47.1c-5.6,9.7-5.3,21.3-6.1,32c0,1-0.1,2.1-0.3,3.4c0.1-1.1,0.2-2.3,0.3-3.4
					c0.1-5.4-2.3-7.5-6.7-10.7c-5.9,9.6-8.1,20.9-3.6,31.2c-3.8-9.9-11.7-14.2-17.6-5.5c-5.1,7.6,2.3,24.9,5.1,32.1
					c-2.6-4.4-5.3-3.8-9-6.7c-8.1,11.5-3.1,25.5,1.7,37.5c0.6,1.1,1.1,2.3,1.5,3.8c-0.5-1.2-1-2.5-1.5-3.8c-2.1-3.6-5.5-5.8-9.6-8
					c-9.7,15.1,2.5,32.2,3.8,48.1c-2.7-7-7.5-13.5-14.9-15.8c-7.7,11.8-1.2,28.9,6.5,40.6c1.9,1.4,3.4,3.2,4.6,6.3
					c-1.5-1.8-3.1-3.9-4.6-6.3c-1.9-1.4-4.3-2.5-7.1-4.1c-7.5,12.3,11.5,30.3,17.1,41.1c-2.8-1.6-7.1-2-10-3.5
					c-3.7,17.1,12.2,33.5,14.4,49.8c-3-4.9-5-3.6-9.3-6.8c-6.9,14.5,3,29.6,4,44.1c-4-3.9-8.6-4.3-13.2-6.9
					c1.3,13.8,6.2,32.8,17.6,41.7l-6.7,1.4c5.2,16.4,11.8,39.8,30.7,45.3c23.2,6.7,44.8-34.1,24.9-45.5
					C1650.8,594.4,1659,562,1637.1,576.3z"/>
				<path class="st18" d="M1580.4,446.9c1.5,2.3,3.1,4.4,4.6,6.3C1583.9,450.2,1582.4,448.4,1580.4,446.9z"/>
			</g>
			<path class="st38" d="M1637,576.3c5.5-12.6,12.1-25.3,11.7-39.2c-6-1.3-10.4-2.5-16.1,1.1c2.6-7.9,23.7-58.4-0.5-39
				c4.2-9.5,16.7-60-7.7-36.4c3.5-10.8,14-25.6,12.7-37.2c-1.1-9.6-7-17.9-12.8-3.8c4.6-11.4,9.7-22.9,13.7-34.4
				c-6.7-2.9-10.2-3-15.4,3.1c7.8-11.4,14.1-23.1,18.8-36.4c-6.8-1.1-7.8-3.5-14.7,1.3c4.6-10.5,15.8-28.5,11.5-37.9
				c-2,0.5-4.5,1.1-6.3,1.6c0.4-13,18.8-41.4-1.4-47.1c-5.6,9.7-5.3,21.3-6.1,32c0,1-0.1,2.1-0.3,3.4c0.1-1.1,0.2-2.3,0.3-3.4
				c0-2.7-7.6,81.8-9.8,167.5c-2.3,87.8,0.9,176.8,3,177.4c23.2,6.7,44.8-34.1,24.9-45.5C1650.7,594.4,1658.9,562,1637,576.3z"/>
		</g>
		<g>
			<g>
				<path class="st38" d="M1880.4,406.2c-7.5-8.3-26.3,2-34.9,1.4c3.1-2.9,12.5-7.1,7.7-11.2c-6.8-5.9-29.7,4.7-37,7.3
					c2.9-3.1,6.8-7,7.7-11.1c-13,0.6-30.4,13.9-35.8,26.6c1.2-6,5.7-11.6,5.1-17.8c-11.2,5.4-25,17.4-27.7,31
					c1-4.4,0.9-9.2,0.7-13.8c-11.1,3.2-13.3,20.9-20.3,29c0.7-4.9,3.7-12.4,1.2-17.1c-7.5,7.3-18.3,19.3-18.1,31.4
					c0-4.9,0.1-9.9-0.1-14.7c-11.8,1.2-13.8,21.8-16.2,31.6c-0.9-4.4-0.9-11-2-15.7c-9.2,1.6-14.4,21.8-15.6,30.5
					c-1-4.7-0.5-12.3-3.3-16.2c-12.3,15.4-12.6,31.8-12.6,50.7l-2.2-4c-9.8,14.1,0.4,20.5,5.8,33.3c-5.1-3-11.2-12.8-13.1-3.3
					c-1.8,9.4,10.2,14.3,10.1,22.3c-5.5-0.7-8.3-8.4-13.7-7.7c0.3,10.4,8.3,33.6,20.4,32.6c0-0.6,0.8,1.6,1,4.4
					c2.3-0.6,8.1-23.2,10.3-35.1c3-16.3,6-32.8,11.4-48.4c11.1-32.3,32-55.7,60.7-74c26.4-16.8,54.7-28.3,86.2-27.6
					c15.8,0.4,33.5,1.9,49.3,7.2c-8-8.3-24-10.1-32.4-13.1C1877,411.5,1885.2,411.4,1880.4,406.2z"/>
			</g>
		</g>
	</g>
</g>
</svg>
