<?xml version="1.0" encoding="utf-8"?>
<!-- Generator: Adobe Illustrator 22.1.0, SVG Export Plug-In . SVG Version: 6.00 Build 0)  -->
<svg version="1.1" id="Слой_1" xmlns="http://www.w3.org/2000/svg" xmlns:xlink="http://www.w3.org/1999/xlink" x="0px" y="0px"
	 viewBox="0 0 1115 600" style="enable-background:new 0 0 1115 600;" xml:space="preserve">
<style type="text/css">
	.st0{fill:#616161;}
	.st1{fill:url(#SVGID_1_);}
	.st2{fill:#454545;}
	.st3{fill:#877373;}
	.st4{fill:#545454;}
	.st5{fill:#EEA886;}
	.st6{fill:#515269;}
	.st7{fill:#6A6B8A;}
	.st8{fill:#202338;}
	.st9{fill:#292C47;}
	.st10{fill:#784A36;}
	.st11{fill:#FFBF55;}
	.st12{fill:#A77860;}
	.st13{fill:#A17836;}
	.st14{fill:#3B3B3B;}
	.st15{fill:#757575;}
	.st16{fill:url(#SVGID_2_);}
	.st17{fill:#474747;}
	.st18{fill:url(#SVGID_3_);}
	.st19{fill:#3D3D3D;}
	.st20{fill:#EDEDED;}
	.st21{fill:#538742;}
</style>
<g>
	
		<rect x="234.2" y="417.5" transform="matrix(1 -1.734383e-03 1.734383e-03 1 -0.7803 0.424)" class="st0" width="19.7" height="65.1"/>
	<g>
		
			<linearGradient id="SVGID_1_" gradientUnits="userSpaceOnUse" x1="228.8053" y1="422.4519" x2="326.8099" y2="422.4519" gradientTransform="matrix(1 -1.700000e-03 1.700000e-03 1 7.7494 -8.3316)">
			<stop  offset="9.585490e-02" style="stop-color:#698C33"/>
			<stop  offset="1" style="stop-color:#677D2E"/>
		</linearGradient>
		<polygon class="st1" points="242.2,436.9 237.3,422.6 330.3,390.4 335.3,404.7 		"/>
	</g>
	<path class="st2" d="M260.3,476.9c-9.7-13.1-19.3-22-19.3-28.9c0-6.9-78.4,27-93.4,60.7c0,0,66.7-27.6,90.1-14.6
		c23.4,13,28.9,17.2,28.9,17.2l15.1-9.7L260.3,476.9z"/>
	<path class="st3" d="M1066.6,513.8c-69.4-16.9-274.8-14.3-329.3-10.1c-54.5,4.2-305.1,13.3-351.1,6.1c-46-7.2-145-8.1-287.4-11.6
		c-142.4-3.5-117.5,70.8,0.1,70.6c117.6-0.2,233.8,26.2,347.5,30.2s254.3-29.9,368.4-29.3C934.9,570.2,1227.6,553.1,1066.6,513.8z"
		/>
	<path class="st4" d="M608.2,225.2l-0.4-0.1c-1.3-0.3-2-1.6-1.7-2.8l14.1-58.2c0.3-1.3,1.6-2,2.8-1.7l0.4,0.1c1.3,0.3,2,1.6,1.7,2.8
		L611,223.5C610.7,224.7,609.5,225.5,608.2,225.2z"/>
	
		<rect x="645.1" y="168.7" transform="matrix(-0.2356 0.9719 -0.9719 -0.2356 995.5881 -380.9875)" class="st4" width="5.1" height="64.6"/>
	<g>
		<g>
			<g>
				<g>
					<g>
						<g>
							<path class="st5" d="M620.9,207.6c0,0-2.3,0.6-3.4,0.3c0,0-2-0.6-3.5-0.9c-0.5-0.1-0.9-0.2-1.1-0.2c-1.1-0.1-3.6,0-6.2-1
								c-2.6-1-12.7-8.3-12.7-8.3l2.4-6.6l1.3-6.5c0,0,16.8-2.9,19.4-2.2c0.2,0.1,0.5,0.1,0.7,0.2c2.1,0.8,3.3,2.2,4.4,2.7
								c0.4,0.2,4.1,2.4,4.3,3.7c0.3,1.8-0.3,3.1-1.2,3.9c0,0,0.4,3.5-0.9,5.4c0,0,0.5,3.2-1.8,5.2
								C622.5,203.4,622.6,206.7,620.9,207.6z"/>
						</g>
					</g>
				</g>
			</g>
		</g>
		<g>
			<path class="st6" d="M493.7,379.2l-3.6,7.9c0,0-15.3-5.7-15.4-5.9c-0.1-0.2,4.2-10.9,4.2-10.9L493.7,379.2z"/>
		</g>
		<g>
			<path class="st7" d="M624.9,378.9l4.3,12.4c0,0-16.8,3.7-19.3,3.5c-0.2,0-3.2-14-3.2-14L624.9,378.9z"/>
		</g>
		<path class="st8" d="M608.1,391.2c0,0,11.7-3.2,12.1-3.7c0.3-0.5,4.7-3.4,6.9-3.1c2.2,0.4,2.4,3,4.6,3.6c2.2,0.5,19.4,6,21.8,7.4
			c2.4,1.4,13.7-2.8,15.9,0.2c2.2,2.9,4.3,10.7-13.5,13.4c-17.8,2.7-36.9,10.7-41.2,9.6C610.4,417.5,607.4,395.9,608.1,391.2z"/>
		<path class="st8" d="M473.5,379.1c0,0,10.9,4.6,11.5,4.5c0.6-0.2,5.6,0.2,7.1,1.8c1.5,1.6,0,3.8,1.4,5.5c1.4,1.8,9.2,12,11.4,14.4
			c1.9,1.9,12.1,3.7,15.3,7.1c2.5,2.6-0.4,12.9-17.8,8c-16.9-4.8-37.8-13-40.4-16.4C459.4,400.6,470.1,382.4,473.5,379.1z"/>
		<g>
			<path class="st9" d="M484.4,224.7c0,0,47.9,21.2,58.1,28.5c10.2,7.3,32.4,20.6,33.2,23.9s5.1,0.1-2.7,16.5
				c-7.9,16.4-45.1,55.9-48.5,60.2c-3.6,4.5-29.4,31.3-29.4,31.3l-19.5-14.6c0,0,37.3-55,42.7-63.1c5.4-8.1,7.8-9.3,4.6-12.9
				c-3.2-3.6-16-3.5-81.8-30.6c-6.6-2.7-24.9-9-27.4-17.8c-4.4-15.9-0.7-36.2,17-45.1C448.2,192.1,484.4,224.7,484.4,224.7z"/>
		</g>
		<g>
			<path class="st5" d="M506.9,70.4c-0.4,0.4-0.9,1.2-1.4,2.3c-0.7,1.6-1.4,3.8-2.1,6.3c-2.2,7.6-4.1,17.4-4.1,17.4
				s-27.5-22.8-23.6-24.2c3.9-1.4,6.7-8.1,6.7-8.1S509.8,67.9,506.9,70.4z"/>
		</g>
		<g>
			<path class="st9" d="M483.6,216.1c0,0,49.5,11.6,61.8,15.5c12.2,3.9,33.3,10.7,39,14c3,1.7,7.6,4.3,13.1,22.1
				c6.3,20.3,20.6,77.3,23.8,86.1c2,5.6,7.9,27.5,7.9,27.5l-25.3,4.4c0,0-30.2-60.6-32.7-76.7c-4.2-27.2-14.7-27.3-19-29.8
				c-4.3-2.5-24.8,2.2-97.8-3.5c-7.3-0.6-27.2-0.9-32.4-8.8c-9.4-14.2-18.8-30.3-4.3-44.7C432.2,207.9,483.6,216.1,483.6,216.1z"/>
		</g>
		<g>
			<path class="st5" d="M516.5,13.1c0,0,8.6,14.8,6.6,18.8c-1.9,4,9,13.8,7.2,15.8c-1.8,2.1-5.5,4.6-5.4,5.2
				c0.1,0.6-3.1,19.9-7.3,20.3c-4.2,0.4-32.9-1-35.3-10c-2.4-9-9.4-28.7-11.1-32.3C469.5,27.3,486-0.9,516.5,13.1z"/>
		</g>
		<g>
			<path class="st10" d="M481,10.3c-2.4,1.8-4.3,3.7-5.9,5.6c-1.9,0.9-13,6.4-10.7,12.4c3.1,8,15.7,29.5,16.8,31.8
				c0.1,0.3,0.1-0.3,0-1.5c0.8-7.6,10.1-16.1,10.1-16.1l5-2.3c-2.6-4.8-1.6-9.4-1.6-9.4c5.6-6.1,24.4-12.6,24.4-12.6
				C516.5-8.5,493.6,1,481,10.3z"/>
		</g>
		<g>
			<path class="st5" d="M490.7,37.8c-1.4-2.1-8.8-1.8-7.7,4.6c1.1,6.3,10.2,11.4,12.2,8.6C497.1,48.1,492.2,40.1,490.7,37.8z"/>
		</g>
		<path class="st11" d="M475.7,72.2c0,0-34.7,20.3-42.5,55.6c-7.8,35.4-21.8,97.4-22.1,104.8c0,0,47-22.7,72.4-16.5
			c0,0,15.9-57.6,24.3-71.2c8.4-13.6-4.2-45.6-4.2-45.6S491.7,80.1,475.7,72.2z"/>
		<path class="st12" d="M505.5,72.7c-0.7,1.6-1.4,3.8-2.1,6.3c-4.1-1.7-11.9-8.9-12.2-9.1C494.5,71.2,505.5,72.7,505.5,72.7z"/>
		<g>
			<path class="st11" d="M491,99.5c0,0,8.3,11.7,13.4,20.6c5.8,10.1,11.5,20,12.8,22.2c2.6,4.5,11.7,7,15.7,8.7
				c3.7,1.6,65,31.2,65.8,31.2c0.8-0.1-3.6,18.2-3.6,18.2s-88.3-27.1-92.1-30.6s-15.3-19.5-20-26.1c-4.5-6.3-11.3-16.6-14.9-21
				c-4.1-5-12.6-21.9-1.8-30.4C480,81.4,487.7,94.5,491,99.5z"/>
		</g>
		<path class="st13" d="M467.6,122.1c0,0,10,26.8,15.9,36c6,9.1,12.6,16.8,12.6,16.8l3.2-9.3C499.2,165.5,473.5,130.3,467.6,122.1z"
			/>
	</g>
	
		<rect x="554.6" y="425.7" transform="matrix(1 -1.694996e-03 1.694996e-03 1 -0.7257 1.2502)" class="st14" width="365.3" height="6.2"/>
	
		<rect x="953.5" y="371.6" transform="matrix(1 -1.699910e-03 1.699910e-03 1 -0.6664 1.6956)" class="st15" width="87.4" height="42.6"/>
	
		<rect x="879.1" y="347.6" transform="matrix(1 -1.702104e-03 1.702104e-03 1 -0.6178 1.5912)" class="st14" width="110.7" height="32.3"/>
	
		<linearGradient id="SVGID_2_" gradientUnits="userSpaceOnUse" x1="749.3737" y1="380.6272" x2="774.8243" y2="201.0963" gradientTransform="matrix(1 -1.700000e-03 1.700000e-03 1 7.7494 -8.3316)">
		<stop  offset="0" style="stop-color:#545454"/>
		<stop  offset="1" style="stop-color:#677D2E"/>
	</linearGradient>
	<path class="st16" d="M646.5,286.2l9.3,0l62.1,97.6l161.3-0.3l-0.1-35.8C879.1,347.7,849.4,265.2,646.5,286.2z"/>
	<polygon class="st4" points="334.5,16.9 358.5,16.8 444.2,276.9 418.8,276.9 	"/>
	
		<rect x="352.1" y="255.6" transform="matrix(1 -1.690689e-03 1.690689e-03 1 -0.5158 0.7515)" class="st4" width="184.2" height="99.7"/>
	
		<rect x="580" y="393.4" transform="matrix(1 -1.702362e-03 1.702362e-03 1 -0.6963 1.1393)" class="st17" width="177.8" height="32.3"/>
	<polygon class="st0" points="704.4,372.1 733.4,425.7 889.6,425.4 924.5,371.7 	"/>
	
		<linearGradient id="SVGID_3_" gradientUnits="userSpaceOnUse" x1="927.8531" y1="114.1814" x2="790.2573" y2="306.2422" gradientTransform="matrix(1 -1.700000e-03 1.700000e-03 1 7.7494 -8.3316)">
		<stop  offset="9.585490e-02" style="stop-color:#698C33"/>
		<stop  offset="1" style="stop-color:#677D2E"/>
	</linearGradient>
	<path class="st18" d="M868.5,347.7l136.5-0.2l0-16.5l-5.1-5.5c0,0,10.7-94.3-56.5-94.1c-67.1,0.1-185.5,0.3-189.2,0.3
		c-3.6,0-46.2-18.5-53.5-24.7c-7.2-6.2-12.6-16.3-36.8,11.8c-6.5,7.5-18.7,17.2-27.4,15.9c-8.7-1.4-37.5-2-39,3.5
		c-1.4,5.5,20.3,46.7,31.1,48.1C639.6,287.6,834.5,274.9,868.5,347.7z"/>
	<path class="st19" d="M1025.5,451.3c0.1,50.1-40.5,90.9-90.6,91c-50.1,0.1-90.9-40.5-91-90.6c-0.1-50.1,40.5-90.9,90.6-91
		C984.7,360.6,1025.4,401.2,1025.5,451.3z"/>
	<path class="st20" d="M997.3,451.4c0.1,34.6-27.9,62.6-62.5,62.7s-62.6-27.9-62.7-62.5c-0.1-34.6,27.9-62.6,62.5-62.7
		C969.1,388.8,997.2,416.8,997.3,451.4z"/>
	
		<ellipse transform="matrix(0.5223 -0.8528 0.8528 0.5223 -131.6801 566.363)" class="st19" cx="439.7" cy="400.7" rx="142.4" ry="142.4"/>
	
		<ellipse transform="matrix(0.843 -0.5379 0.5379 0.843 -146.5179 299.3906)" class="st20" cx="439.7" cy="400.7" rx="96.9" ry="96.9"/>
	<polygon class="st21" points="585.9,303.6 537.6,255.5 347.1,255.8 298.3,304.7 290.1,304.7 345.4,249.2 542.4,248.9 598.4,304.7 	
		"/>
	
		<rect x="352" y="160.8" transform="matrix(1 -1.682236e-03 1.682236e-03 1 -0.3443 0.6207)" class="st4" width="33.7" height="88.4"/>
	<g>
		<path class="st4" d="M515.8,249c-0.5-25.9-2.9-56.5-5.9-62.9c-11.6-3.2-90.7-1.1-144.6,1.4l-0.5-11c0.4,0,36-1.7,72-2.6
			c75-1.8,78.3,1.5,80.8,3.9c1.9,1.9,5.6,5.5,7.9,39.5c1.1,15.9,1.4,31.2,1.4,31.4L515.8,249z M510.6,186.4L510.6,186.4L510.6,186.4
			z"/>
	</g>
	
		<rect x="766.1" y="106" transform="matrix(1 -1.758355e-03 1.758355e-03 1 -0.4155 1.3602)" class="st4" width="14.4" height="262.1"/>
	<path class="st3" d="M185.7,509.2c0,0,6.4-32.2-29.9-31.5c-36.2,0.7-13.8-7.7-35.3-12.2C99,461,85.3,489.4,62.3,486.9
		S7.2,503.1,2.4,523.7C-2.4,544.3,185.7,509.2,185.7,509.2z"/>
</g>
</svg>
